%TF.GenerationSoftware,KiCad,Pcbnew,7.0.10*%
%TF.CreationDate,2024-09-09T18:41:44-04:00*%
%TF.ProjectId,Shield,53686965-6c64-42e6-9b69-6361645f7063,rev?*%
%TF.SameCoordinates,Original*%
%TF.FileFunction,Legend,Bot*%
%TF.FilePolarity,Positive*%
%FSLAX46Y46*%
G04 Gerber Fmt 4.6, Leading zero omitted, Abs format (unit mm)*
G04 Created by KiCad (PCBNEW 7.0.10) date 2024-09-09 18:41:44*
%MOMM*%
%LPD*%
G01*
G04 APERTURE LIST*
%ADD10C,0.010000*%
G04 APERTURE END LIST*
%TO.C,REF\u002A\u002A*%
D10*
X103805994Y-91479711D02*
X103805268Y-91557158D01*
X103796689Y-91708594D01*
X103777833Y-91845283D01*
X103747837Y-91971276D01*
X103705836Y-92090625D01*
X103650969Y-92207381D01*
X103584167Y-92318179D01*
X103493363Y-92431739D01*
X103389708Y-92527211D01*
X103273887Y-92604073D01*
X103146586Y-92661797D01*
X103008489Y-92699858D01*
X102970793Y-92705666D01*
X102891752Y-92711396D01*
X102803629Y-92711583D01*
X102714236Y-92706539D01*
X102631384Y-92696578D01*
X102562887Y-92682012D01*
X102532035Y-92672364D01*
X102454730Y-92642123D01*
X102377679Y-92604617D01*
X102308200Y-92563614D01*
X102253615Y-92522879D01*
X102230916Y-92503505D01*
X102208201Y-92485662D01*
X102196779Y-92478778D01*
X102195537Y-92480424D01*
X102192728Y-92498205D01*
X102190776Y-92531370D01*
X102190045Y-92574733D01*
X102190045Y-92670689D01*
X101331896Y-92670689D01*
X101366161Y-92609974D01*
X101371355Y-92600868D01*
X101379715Y-92586249D01*
X101387288Y-92572173D01*
X101394112Y-92557540D01*
X101400227Y-92541249D01*
X101405673Y-92522198D01*
X101410487Y-92499286D01*
X101414708Y-92471413D01*
X101418377Y-92437478D01*
X101421531Y-92396379D01*
X101424211Y-92347015D01*
X101426454Y-92288286D01*
X101428299Y-92219090D01*
X101429787Y-92138326D01*
X101430955Y-92044894D01*
X101431678Y-91957721D01*
X102235200Y-91957721D01*
X102305756Y-92004089D01*
X102346417Y-92027791D01*
X102400546Y-92053639D01*
X102449689Y-92071829D01*
X102513165Y-92087551D01*
X102609331Y-92098541D01*
X102693900Y-92090365D01*
X102767219Y-92062805D01*
X102829637Y-92015642D01*
X102881502Y-91948658D01*
X102923160Y-91861633D01*
X102954962Y-91754350D01*
X102957545Y-91742009D01*
X102966000Y-91680772D01*
X102971663Y-91603692D01*
X102974576Y-91516002D01*
X102974783Y-91422934D01*
X102972330Y-91329720D01*
X102967261Y-91241594D01*
X102959619Y-91163788D01*
X102949448Y-91101533D01*
X102948167Y-91095666D01*
X102919126Y-90985121D01*
X102884610Y-90894575D01*
X102843456Y-90821953D01*
X102794499Y-90765181D01*
X102736574Y-90722184D01*
X102704620Y-90706615D01*
X102631784Y-90687722D01*
X102550443Y-90684465D01*
X102465319Y-90696389D01*
X102381133Y-90723040D01*
X102302608Y-90763962D01*
X102235200Y-90807530D01*
X102235200Y-91957721D01*
X101431678Y-91957721D01*
X101431844Y-91937692D01*
X101432491Y-91815620D01*
X101432936Y-91677576D01*
X101433218Y-91522459D01*
X101433375Y-91349168D01*
X101433448Y-91156603D01*
X101433474Y-90943662D01*
X101433493Y-90709245D01*
X101433689Y-89024378D01*
X102339017Y-89024378D01*
X102314585Y-89061067D01*
X102308318Y-89070647D01*
X102282208Y-89116981D01*
X102264469Y-89164102D01*
X102252908Y-89219251D01*
X102245331Y-89289667D01*
X102244839Y-89296650D01*
X102243062Y-89334641D01*
X102241444Y-89388576D01*
X102239999Y-89455703D01*
X102238740Y-89533271D01*
X102237680Y-89618528D01*
X102236829Y-89708724D01*
X102236203Y-89801107D01*
X102235812Y-89892925D01*
X102235670Y-89981427D01*
X102235790Y-90063862D01*
X102236183Y-90137479D01*
X102236862Y-90199526D01*
X102237841Y-90247251D01*
X102239132Y-90277904D01*
X102240747Y-90288733D01*
X102248957Y-90284333D01*
X102270647Y-90269362D01*
X102300014Y-90247448D01*
X102348879Y-90213236D01*
X102437125Y-90166714D01*
X102535916Y-90133046D01*
X102648510Y-90111231D01*
X102778164Y-90100265D01*
X102870670Y-90099219D01*
X102992011Y-90109014D01*
X103102099Y-90133174D01*
X103205389Y-90172785D01*
X103306338Y-90228932D01*
X103351503Y-90259883D01*
X103456911Y-90351115D01*
X103548538Y-90460106D01*
X103626332Y-90586726D01*
X103690241Y-90730845D01*
X103740214Y-90892332D01*
X103776198Y-91071059D01*
X103798143Y-91266895D01*
X103803900Y-91422934D01*
X103805994Y-91479711D01*
G36*
X103805994Y-91479711D02*
G01*
X103805268Y-91557158D01*
X103796689Y-91708594D01*
X103777833Y-91845283D01*
X103747837Y-91971276D01*
X103705836Y-92090625D01*
X103650969Y-92207381D01*
X103584167Y-92318179D01*
X103493363Y-92431739D01*
X103389708Y-92527211D01*
X103273887Y-92604073D01*
X103146586Y-92661797D01*
X103008489Y-92699858D01*
X102970793Y-92705666D01*
X102891752Y-92711396D01*
X102803629Y-92711583D01*
X102714236Y-92706539D01*
X102631384Y-92696578D01*
X102562887Y-92682012D01*
X102532035Y-92672364D01*
X102454730Y-92642123D01*
X102377679Y-92604617D01*
X102308200Y-92563614D01*
X102253615Y-92522879D01*
X102230916Y-92503505D01*
X102208201Y-92485662D01*
X102196779Y-92478778D01*
X102195537Y-92480424D01*
X102192728Y-92498205D01*
X102190776Y-92531370D01*
X102190045Y-92574733D01*
X102190045Y-92670689D01*
X101331896Y-92670689D01*
X101366161Y-92609974D01*
X101371355Y-92600868D01*
X101379715Y-92586249D01*
X101387288Y-92572173D01*
X101394112Y-92557540D01*
X101400227Y-92541249D01*
X101405673Y-92522198D01*
X101410487Y-92499286D01*
X101414708Y-92471413D01*
X101418377Y-92437478D01*
X101421531Y-92396379D01*
X101424211Y-92347015D01*
X101426454Y-92288286D01*
X101428299Y-92219090D01*
X101429787Y-92138326D01*
X101430955Y-92044894D01*
X101431678Y-91957721D01*
X102235200Y-91957721D01*
X102305756Y-92004089D01*
X102346417Y-92027791D01*
X102400546Y-92053639D01*
X102449689Y-92071829D01*
X102513165Y-92087551D01*
X102609331Y-92098541D01*
X102693900Y-92090365D01*
X102767219Y-92062805D01*
X102829637Y-92015642D01*
X102881502Y-91948658D01*
X102923160Y-91861633D01*
X102954962Y-91754350D01*
X102957545Y-91742009D01*
X102966000Y-91680772D01*
X102971663Y-91603692D01*
X102974576Y-91516002D01*
X102974783Y-91422934D01*
X102972330Y-91329720D01*
X102967261Y-91241594D01*
X102959619Y-91163788D01*
X102949448Y-91101533D01*
X102948167Y-91095666D01*
X102919126Y-90985121D01*
X102884610Y-90894575D01*
X102843456Y-90821953D01*
X102794499Y-90765181D01*
X102736574Y-90722184D01*
X102704620Y-90706615D01*
X102631784Y-90687722D01*
X102550443Y-90684465D01*
X102465319Y-90696389D01*
X102381133Y-90723040D01*
X102302608Y-90763962D01*
X102235200Y-90807530D01*
X102235200Y-91957721D01*
X101431678Y-91957721D01*
X101431844Y-91937692D01*
X101432491Y-91815620D01*
X101432936Y-91677576D01*
X101433218Y-91522459D01*
X101433375Y-91349168D01*
X101433448Y-91156603D01*
X101433474Y-90943662D01*
X101433493Y-90709245D01*
X101433689Y-89024378D01*
X102339017Y-89024378D01*
X102314585Y-89061067D01*
X102308318Y-89070647D01*
X102282208Y-89116981D01*
X102264469Y-89164102D01*
X102252908Y-89219251D01*
X102245331Y-89289667D01*
X102244839Y-89296650D01*
X102243062Y-89334641D01*
X102241444Y-89388576D01*
X102239999Y-89455703D01*
X102238740Y-89533271D01*
X102237680Y-89618528D01*
X102236829Y-89708724D01*
X102236203Y-89801107D01*
X102235812Y-89892925D01*
X102235670Y-89981427D01*
X102235790Y-90063862D01*
X102236183Y-90137479D01*
X102236862Y-90199526D01*
X102237841Y-90247251D01*
X102239132Y-90277904D01*
X102240747Y-90288733D01*
X102248957Y-90284333D01*
X102270647Y-90269362D01*
X102300014Y-90247448D01*
X102348879Y-90213236D01*
X102437125Y-90166714D01*
X102535916Y-90133046D01*
X102648510Y-90111231D01*
X102778164Y-90100265D01*
X102870670Y-90099219D01*
X102992011Y-90109014D01*
X103102099Y-90133174D01*
X103205389Y-90172785D01*
X103306338Y-90228932D01*
X103351503Y-90259883D01*
X103456911Y-90351115D01*
X103548538Y-90460106D01*
X103626332Y-90586726D01*
X103690241Y-90730845D01*
X103740214Y-90892332D01*
X103776198Y-91071059D01*
X103798143Y-91266895D01*
X103803900Y-91422934D01*
X103805994Y-91479711D01*
G37*
X102775767Y-93506068D02*
X102869890Y-93506158D01*
X102944405Y-93506498D01*
X103001811Y-93507239D01*
X103044611Y-93508535D01*
X103075304Y-93510537D01*
X103096391Y-93513396D01*
X103110373Y-93517266D01*
X103119750Y-93522298D01*
X103127022Y-93528645D01*
X103145828Y-93561362D01*
X103147275Y-93598939D01*
X103130917Y-93632178D01*
X103129557Y-93633631D01*
X103118354Y-93641992D01*
X103101252Y-93647547D01*
X103074082Y-93650840D01*
X103032678Y-93652418D01*
X102972873Y-93652822D01*
X102833511Y-93652822D01*
X102833511Y-93916589D01*
X102833436Y-93992417D01*
X102833028Y-94059083D01*
X102832046Y-94108867D01*
X102830250Y-94144784D01*
X102827399Y-94169850D01*
X102823253Y-94187081D01*
X102817571Y-94199492D01*
X102810114Y-94210100D01*
X102807824Y-94212906D01*
X102776646Y-94235548D01*
X102742266Y-94237112D01*
X102709334Y-94217267D01*
X102702355Y-94209191D01*
X102696883Y-94198593D01*
X102692863Y-94182749D01*
X102690072Y-94158773D01*
X102688288Y-94123774D01*
X102687289Y-94074864D01*
X102686852Y-94009154D01*
X102686756Y-93923756D01*
X102686756Y-93652822D01*
X102540820Y-93652822D01*
X102529720Y-93652821D01*
X102473202Y-93652596D01*
X102434358Y-93651457D01*
X102408965Y-93648657D01*
X102392804Y-93643450D01*
X102381652Y-93635089D01*
X102371289Y-93622826D01*
X102355441Y-93592138D01*
X102358543Y-93558358D01*
X102384187Y-93525822D01*
X102389129Y-93522105D01*
X102399338Y-93517269D01*
X102414764Y-93513506D01*
X102437886Y-93510683D01*
X102471183Y-93508670D01*
X102517137Y-93507333D01*
X102578228Y-93506542D01*
X102656935Y-93506163D01*
X102755740Y-93506067D01*
X102775767Y-93506068D01*
G36*
X102775767Y-93506068D02*
G01*
X102869890Y-93506158D01*
X102944405Y-93506498D01*
X103001811Y-93507239D01*
X103044611Y-93508535D01*
X103075304Y-93510537D01*
X103096391Y-93513396D01*
X103110373Y-93517266D01*
X103119750Y-93522298D01*
X103127022Y-93528645D01*
X103145828Y-93561362D01*
X103147275Y-93598939D01*
X103130917Y-93632178D01*
X103129557Y-93633631D01*
X103118354Y-93641992D01*
X103101252Y-93647547D01*
X103074082Y-93650840D01*
X103032678Y-93652418D01*
X102972873Y-93652822D01*
X102833511Y-93652822D01*
X102833511Y-93916589D01*
X102833436Y-93992417D01*
X102833028Y-94059083D01*
X102832046Y-94108867D01*
X102830250Y-94144784D01*
X102827399Y-94169850D01*
X102823253Y-94187081D01*
X102817571Y-94199492D01*
X102810114Y-94210100D01*
X102807824Y-94212906D01*
X102776646Y-94235548D01*
X102742266Y-94237112D01*
X102709334Y-94217267D01*
X102702355Y-94209191D01*
X102696883Y-94198593D01*
X102692863Y-94182749D01*
X102690072Y-94158773D01*
X102688288Y-94123774D01*
X102687289Y-94074864D01*
X102686852Y-94009154D01*
X102686756Y-93923756D01*
X102686756Y-93652822D01*
X102540820Y-93652822D01*
X102529720Y-93652821D01*
X102473202Y-93652596D01*
X102434358Y-93651457D01*
X102408965Y-93648657D01*
X102392804Y-93643450D01*
X102381652Y-93635089D01*
X102371289Y-93622826D01*
X102355441Y-93592138D01*
X102358543Y-93558358D01*
X102384187Y-93525822D01*
X102389129Y-93522105D01*
X102399338Y-93517269D01*
X102414764Y-93513506D01*
X102437886Y-93510683D01*
X102471183Y-93508670D01*
X102517137Y-93507333D01*
X102578228Y-93506542D01*
X102656935Y-93506163D01*
X102755740Y-93506067D01*
X102775767Y-93506068D01*
G37*
X113896817Y-93691427D02*
X113896870Y-93772041D01*
X113896622Y-93872956D01*
X113896583Y-93948617D01*
X113896328Y-94026526D01*
X113895684Y-94086536D01*
X113894480Y-94131264D01*
X113892543Y-94163326D01*
X113889703Y-94185340D01*
X113885788Y-94199924D01*
X113880626Y-94209694D01*
X113874045Y-94217267D01*
X113867077Y-94223501D01*
X113854079Y-94230801D01*
X113834931Y-94235554D01*
X113805528Y-94238292D01*
X113761762Y-94239545D01*
X113699528Y-94239845D01*
X113650582Y-94239469D01*
X113543722Y-94235041D01*
X113454494Y-94224953D01*
X113379696Y-94208365D01*
X113316125Y-94184435D01*
X113260579Y-94152321D01*
X113209854Y-94111182D01*
X113203866Y-94105330D01*
X113166999Y-94056821D01*
X113135899Y-93996013D01*
X113114417Y-93931769D01*
X113109136Y-93893026D01*
X113256353Y-93893026D01*
X113274635Y-93943961D01*
X113304305Y-93989878D01*
X113351002Y-94032287D01*
X113412392Y-94062090D01*
X113491538Y-94081226D01*
X113493028Y-94081464D01*
X113541999Y-94087256D01*
X113600693Y-94091396D01*
X113656734Y-94093004D01*
X113749867Y-94093089D01*
X113749867Y-93652822D01*
X113673667Y-93652808D01*
X113670639Y-93652817D01*
X113619519Y-93654782D01*
X113559416Y-93659507D01*
X113502708Y-93666035D01*
X113452750Y-93675331D01*
X113377998Y-93701600D01*
X113320489Y-93740899D01*
X113278988Y-93793933D01*
X113257771Y-93845200D01*
X113256353Y-93893026D01*
X113109136Y-93893026D01*
X113106400Y-93872956D01*
X113107679Y-93851739D01*
X113119991Y-93794323D01*
X113142520Y-93734413D01*
X113171750Y-93680363D01*
X113204167Y-93640532D01*
X113223708Y-93623510D01*
X113278420Y-93584322D01*
X113338723Y-93554193D01*
X113407919Y-93532232D01*
X113489311Y-93517550D01*
X113586200Y-93509259D01*
X113701889Y-93506467D01*
X113741371Y-93506066D01*
X113787082Y-93505653D01*
X113822883Y-93507457D01*
X113849974Y-93513739D01*
X113869556Y-93526759D01*
X113882830Y-93548778D01*
X113890998Y-93582055D01*
X113895260Y-93628851D01*
X113895857Y-93652822D01*
X113896817Y-93691427D01*
G36*
X113896817Y-93691427D02*
G01*
X113896870Y-93772041D01*
X113896622Y-93872956D01*
X113896583Y-93948617D01*
X113896328Y-94026526D01*
X113895684Y-94086536D01*
X113894480Y-94131264D01*
X113892543Y-94163326D01*
X113889703Y-94185340D01*
X113885788Y-94199924D01*
X113880626Y-94209694D01*
X113874045Y-94217267D01*
X113867077Y-94223501D01*
X113854079Y-94230801D01*
X113834931Y-94235554D01*
X113805528Y-94238292D01*
X113761762Y-94239545D01*
X113699528Y-94239845D01*
X113650582Y-94239469D01*
X113543722Y-94235041D01*
X113454494Y-94224953D01*
X113379696Y-94208365D01*
X113316125Y-94184435D01*
X113260579Y-94152321D01*
X113209854Y-94111182D01*
X113203866Y-94105330D01*
X113166999Y-94056821D01*
X113135899Y-93996013D01*
X113114417Y-93931769D01*
X113109136Y-93893026D01*
X113256353Y-93893026D01*
X113274635Y-93943961D01*
X113304305Y-93989878D01*
X113351002Y-94032287D01*
X113412392Y-94062090D01*
X113491538Y-94081226D01*
X113493028Y-94081464D01*
X113541999Y-94087256D01*
X113600693Y-94091396D01*
X113656734Y-94093004D01*
X113749867Y-94093089D01*
X113749867Y-93652822D01*
X113673667Y-93652808D01*
X113670639Y-93652817D01*
X113619519Y-93654782D01*
X113559416Y-93659507D01*
X113502708Y-93666035D01*
X113452750Y-93675331D01*
X113377998Y-93701600D01*
X113320489Y-93740899D01*
X113278988Y-93793933D01*
X113257771Y-93845200D01*
X113256353Y-93893026D01*
X113109136Y-93893026D01*
X113106400Y-93872956D01*
X113107679Y-93851739D01*
X113119991Y-93794323D01*
X113142520Y-93734413D01*
X113171750Y-93680363D01*
X113204167Y-93640532D01*
X113223708Y-93623510D01*
X113278420Y-93584322D01*
X113338723Y-93554193D01*
X113407919Y-93532232D01*
X113489311Y-93517550D01*
X113586200Y-93509259D01*
X113701889Y-93506467D01*
X113741371Y-93506066D01*
X113787082Y-93505653D01*
X113822883Y-93507457D01*
X113849974Y-93513739D01*
X113869556Y-93526759D01*
X113882830Y-93548778D01*
X113890998Y-93582055D01*
X113895260Y-93628851D01*
X113895857Y-93652822D01*
X113896817Y-93691427D01*
G37*
X103909702Y-93515478D02*
X103927663Y-93533989D01*
X103948263Y-93565071D01*
X103973095Y-93610756D01*
X104003750Y-93673078D01*
X104041820Y-93754071D01*
X104056454Y-93785454D01*
X104086203Y-93848638D01*
X104112297Y-93903244D01*
X104133292Y-93946290D01*
X104147739Y-93974793D01*
X104154191Y-93985770D01*
X104155550Y-93985189D01*
X104165542Y-93971242D01*
X104182833Y-93941704D01*
X104205430Y-93900087D01*
X104231338Y-93849903D01*
X104247311Y-93818414D01*
X104276261Y-93763061D01*
X104298749Y-93724044D01*
X104316965Y-93698566D01*
X104333096Y-93683831D01*
X104349330Y-93677042D01*
X104367857Y-93675400D01*
X104378360Y-93675875D01*
X104394476Y-93680082D01*
X104409790Y-93690946D01*
X104426388Y-93711219D01*
X104446357Y-93743654D01*
X104471783Y-93791004D01*
X104504752Y-93856022D01*
X104514485Y-93875277D01*
X104538943Y-93921946D01*
X104559178Y-93958109D01*
X104573311Y-93980497D01*
X104579460Y-93985845D01*
X104580827Y-93982573D01*
X104590202Y-93961664D01*
X104607062Y-93924725D01*
X104629979Y-93874874D01*
X104657520Y-93815226D01*
X104688255Y-93748898D01*
X104714970Y-93691677D01*
X104744593Y-93629688D01*
X104767664Y-93583949D01*
X104785643Y-93551908D01*
X104799990Y-93531014D01*
X104812166Y-93518718D01*
X104823632Y-93512466D01*
X104833042Y-93509574D01*
X104858147Y-93509425D01*
X104885290Y-93524768D01*
X104886590Y-93525753D01*
X104908674Y-93548388D01*
X104919723Y-93570613D01*
X104919769Y-93571253D01*
X104915228Y-93588915D01*
X104902364Y-93623481D01*
X104882605Y-93671826D01*
X104857381Y-93730825D01*
X104828119Y-93797355D01*
X104796250Y-93868291D01*
X104763201Y-93940507D01*
X104730401Y-94010880D01*
X104699280Y-94076285D01*
X104671265Y-94133597D01*
X104647786Y-94179692D01*
X104630272Y-94211446D01*
X104620151Y-94225733D01*
X104585743Y-94239102D01*
X104544046Y-94232741D01*
X104538681Y-94228044D01*
X104522852Y-94205893D01*
X104500650Y-94169132D01*
X104474233Y-94121415D01*
X104445760Y-94066393D01*
X104365986Y-93907150D01*
X104292799Y-94053742D01*
X104283103Y-94073032D01*
X104256125Y-94125380D01*
X104232096Y-94170170D01*
X104213332Y-94203154D01*
X104202146Y-94220089D01*
X104201000Y-94221332D01*
X104172879Y-94236619D01*
X104137817Y-94238302D01*
X104106776Y-94225733D01*
X104104350Y-94222884D01*
X104092090Y-94202259D01*
X104072352Y-94164708D01*
X104046448Y-94112880D01*
X104015685Y-94049423D01*
X103981375Y-93976985D01*
X103944825Y-93898216D01*
X103924585Y-93854093D01*
X103887812Y-93773365D01*
X103859355Y-93709687D01*
X103838331Y-93660752D01*
X103823854Y-93624257D01*
X103815039Y-93597895D01*
X103811004Y-93579361D01*
X103810862Y-93566352D01*
X103813730Y-93556561D01*
X103828387Y-93535678D01*
X103854990Y-93515377D01*
X103855745Y-93515035D01*
X103875335Y-93508034D01*
X103892790Y-93507504D01*
X103909702Y-93515478D01*
G36*
X103909702Y-93515478D02*
G01*
X103927663Y-93533989D01*
X103948263Y-93565071D01*
X103973095Y-93610756D01*
X104003750Y-93673078D01*
X104041820Y-93754071D01*
X104056454Y-93785454D01*
X104086203Y-93848638D01*
X104112297Y-93903244D01*
X104133292Y-93946290D01*
X104147739Y-93974793D01*
X104154191Y-93985770D01*
X104155550Y-93985189D01*
X104165542Y-93971242D01*
X104182833Y-93941704D01*
X104205430Y-93900087D01*
X104231338Y-93849903D01*
X104247311Y-93818414D01*
X104276261Y-93763061D01*
X104298749Y-93724044D01*
X104316965Y-93698566D01*
X104333096Y-93683831D01*
X104349330Y-93677042D01*
X104367857Y-93675400D01*
X104378360Y-93675875D01*
X104394476Y-93680082D01*
X104409790Y-93690946D01*
X104426388Y-93711219D01*
X104446357Y-93743654D01*
X104471783Y-93791004D01*
X104504752Y-93856022D01*
X104514485Y-93875277D01*
X104538943Y-93921946D01*
X104559178Y-93958109D01*
X104573311Y-93980497D01*
X104579460Y-93985845D01*
X104580827Y-93982573D01*
X104590202Y-93961664D01*
X104607062Y-93924725D01*
X104629979Y-93874874D01*
X104657520Y-93815226D01*
X104688255Y-93748898D01*
X104714970Y-93691677D01*
X104744593Y-93629688D01*
X104767664Y-93583949D01*
X104785643Y-93551908D01*
X104799990Y-93531014D01*
X104812166Y-93518718D01*
X104823632Y-93512466D01*
X104833042Y-93509574D01*
X104858147Y-93509425D01*
X104885290Y-93524768D01*
X104886590Y-93525753D01*
X104908674Y-93548388D01*
X104919723Y-93570613D01*
X104919769Y-93571253D01*
X104915228Y-93588915D01*
X104902364Y-93623481D01*
X104882605Y-93671826D01*
X104857381Y-93730825D01*
X104828119Y-93797355D01*
X104796250Y-93868291D01*
X104763201Y-93940507D01*
X104730401Y-94010880D01*
X104699280Y-94076285D01*
X104671265Y-94133597D01*
X104647786Y-94179692D01*
X104630272Y-94211446D01*
X104620151Y-94225733D01*
X104585743Y-94239102D01*
X104544046Y-94232741D01*
X104538681Y-94228044D01*
X104522852Y-94205893D01*
X104500650Y-94169132D01*
X104474233Y-94121415D01*
X104445760Y-94066393D01*
X104365986Y-93907150D01*
X104292799Y-94053742D01*
X104283103Y-94073032D01*
X104256125Y-94125380D01*
X104232096Y-94170170D01*
X104213332Y-94203154D01*
X104202146Y-94220089D01*
X104201000Y-94221332D01*
X104172879Y-94236619D01*
X104137817Y-94238302D01*
X104106776Y-94225733D01*
X104104350Y-94222884D01*
X104092090Y-94202259D01*
X104072352Y-94164708D01*
X104046448Y-94112880D01*
X104015685Y-94049423D01*
X103981375Y-93976985D01*
X103944825Y-93898216D01*
X103924585Y-93854093D01*
X103887812Y-93773365D01*
X103859355Y-93709687D01*
X103838331Y-93660752D01*
X103823854Y-93624257D01*
X103815039Y-93597895D01*
X103811004Y-93579361D01*
X103810862Y-93566352D01*
X103813730Y-93556561D01*
X103828387Y-93535678D01*
X103854990Y-93515377D01*
X103855745Y-93515035D01*
X103875335Y-93508034D01*
X103892790Y-93507504D01*
X103909702Y-93515478D01*
G37*
X113895614Y-89348792D02*
X113896059Y-89480011D01*
X113896362Y-89627216D01*
X113896548Y-89791349D01*
X113896642Y-89973352D01*
X113896671Y-90174165D01*
X113896661Y-90394732D01*
X113896636Y-90635992D01*
X113896622Y-90898889D01*
X113896622Y-90941040D01*
X113896646Y-91201668D01*
X113896685Y-91440796D01*
X113896708Y-91659360D01*
X113896687Y-91858295D01*
X113896593Y-92038535D01*
X113896395Y-92201015D01*
X113896063Y-92346670D01*
X113895569Y-92476434D01*
X113894883Y-92591243D01*
X113893976Y-92692030D01*
X113892817Y-92779730D01*
X113891378Y-92855279D01*
X113889629Y-92919611D01*
X113887540Y-92973661D01*
X113885083Y-93018363D01*
X113882227Y-93054652D01*
X113878943Y-93083463D01*
X113875202Y-93105731D01*
X113870974Y-93122390D01*
X113866229Y-93134375D01*
X113860939Y-93142621D01*
X113855073Y-93148062D01*
X113848602Y-93151634D01*
X113841497Y-93154270D01*
X113833728Y-93156906D01*
X113825266Y-93160477D01*
X113820908Y-93162145D01*
X113812395Y-93164111D01*
X113799694Y-93165911D01*
X113781885Y-93167555D01*
X113758049Y-93169047D01*
X113727266Y-93170397D01*
X113688617Y-93171611D01*
X113641182Y-93172697D01*
X113584043Y-93173661D01*
X113516279Y-93174511D01*
X113436971Y-93175253D01*
X113345199Y-93175897D01*
X113240044Y-93176447D01*
X113120587Y-93176913D01*
X112985908Y-93177300D01*
X112835088Y-93177616D01*
X112667206Y-93177869D01*
X112481345Y-93178066D01*
X112276583Y-93178213D01*
X112052002Y-93178318D01*
X111806682Y-93178389D01*
X111539704Y-93178432D01*
X111501321Y-93178437D01*
X111235922Y-93178480D01*
X110992050Y-93178525D01*
X110768783Y-93178548D01*
X110565196Y-93178524D01*
X110380367Y-93178430D01*
X110213373Y-93178243D01*
X110063290Y-93177939D01*
X109929196Y-93177494D01*
X109810166Y-93176885D01*
X109705279Y-93176089D01*
X109613610Y-93175080D01*
X109534237Y-93173837D01*
X109466237Y-93172335D01*
X109408686Y-93170551D01*
X109360662Y-93168461D01*
X109321240Y-93166042D01*
X109289499Y-93163270D01*
X109264514Y-93160121D01*
X109245364Y-93156572D01*
X109231123Y-93152598D01*
X109220871Y-93148178D01*
X109213682Y-93143286D01*
X109208635Y-93137900D01*
X109204805Y-93131996D01*
X109201271Y-93125549D01*
X109197108Y-93118537D01*
X109196025Y-93116687D01*
X109193813Y-93111180D01*
X109191786Y-93102868D01*
X109189938Y-93090809D01*
X109188261Y-93074063D01*
X109186745Y-93051687D01*
X109185383Y-93022740D01*
X109184167Y-92986280D01*
X109183089Y-92941367D01*
X109182140Y-92887057D01*
X109181312Y-92822410D01*
X109180597Y-92746484D01*
X109179987Y-92658338D01*
X109179942Y-92649493D01*
X109471378Y-92649493D01*
X109475260Y-92650765D01*
X109498520Y-92652791D01*
X109540874Y-92654626D01*
X109600132Y-92656227D01*
X109674107Y-92657549D01*
X109760610Y-92658548D01*
X109857452Y-92659180D01*
X109962445Y-92659400D01*
X110660651Y-92659400D01*
X111815090Y-92659400D01*
X111814456Y-92583200D01*
X111815574Y-92541160D01*
X111821304Y-92505334D01*
X111833890Y-92467772D01*
X111855568Y-92419577D01*
X111858789Y-92412897D01*
X111884188Y-92363359D01*
X111910996Y-92315369D01*
X111933917Y-92278466D01*
X111938485Y-92271834D01*
X111960516Y-92240593D01*
X111992693Y-92195654D01*
X112033457Y-92139147D01*
X112081245Y-92073204D01*
X112134498Y-91999957D01*
X112191655Y-91921536D01*
X112251155Y-91840072D01*
X112311437Y-91757698D01*
X112370940Y-91676544D01*
X112428105Y-91598742D01*
X112481370Y-91526423D01*
X112529174Y-91461718D01*
X112569957Y-91406759D01*
X112602158Y-91363676D01*
X112624216Y-91334602D01*
X112634571Y-91321667D01*
X112639044Y-91317351D01*
X112643236Y-91315312D01*
X112646643Y-91317926D01*
X112649325Y-91326986D01*
X112651341Y-91344285D01*
X112652748Y-91371614D01*
X112653605Y-91410765D01*
X112653970Y-91463533D01*
X112653903Y-91531707D01*
X112653460Y-91617082D01*
X112652702Y-91721449D01*
X112651685Y-91846600D01*
X112651308Y-91891300D01*
X112650169Y-92012395D01*
X112648972Y-92113688D01*
X112647636Y-92197262D01*
X112646077Y-92265204D01*
X112644215Y-92319599D01*
X112641966Y-92362532D01*
X112639248Y-92396089D01*
X112635979Y-92422355D01*
X112632078Y-92443416D01*
X112627461Y-92461357D01*
X112619192Y-92487770D01*
X112595583Y-92549772D01*
X112569685Y-92602573D01*
X112544535Y-92639645D01*
X112543339Y-92641075D01*
X112541168Y-92645424D01*
X112543328Y-92649026D01*
X112551644Y-92651951D01*
X112567940Y-92654269D01*
X112594041Y-92656051D01*
X112631771Y-92657367D01*
X112682956Y-92658286D01*
X112749420Y-92658878D01*
X112832987Y-92659215D01*
X112935483Y-92659365D01*
X113058732Y-92659400D01*
X113590296Y-92659400D01*
X113551523Y-92601783D01*
X113545432Y-92592893D01*
X113534976Y-92578069D01*
X113525579Y-92564422D01*
X113517183Y-92550765D01*
X113509733Y-92535911D01*
X113503173Y-92518670D01*
X113497446Y-92497855D01*
X113492495Y-92472280D01*
X113488266Y-92440755D01*
X113484701Y-92402093D01*
X113481744Y-92355107D01*
X113479340Y-92298608D01*
X113477431Y-92231409D01*
X113475962Y-92152322D01*
X113474876Y-92060160D01*
X113474118Y-91953734D01*
X113473630Y-91831857D01*
X113473358Y-91693341D01*
X113473243Y-91536999D01*
X113473231Y-91361642D01*
X113473265Y-91166082D01*
X113473289Y-90949133D01*
X113473280Y-90826513D01*
X113473243Y-90621447D01*
X113473227Y-90437116D01*
X113473288Y-90272334D01*
X113473484Y-90125916D01*
X113473870Y-89996674D01*
X113474505Y-89883422D01*
X113475444Y-89784975D01*
X113476745Y-89700144D01*
X113478464Y-89627744D01*
X113480659Y-89566589D01*
X113483385Y-89515492D01*
X113486701Y-89473267D01*
X113490662Y-89438727D01*
X113495325Y-89410686D01*
X113500747Y-89387958D01*
X113506986Y-89369356D01*
X113514097Y-89353693D01*
X113522138Y-89339784D01*
X113531166Y-89326441D01*
X113541236Y-89312479D01*
X113552407Y-89296711D01*
X113592197Y-89238867D01*
X112532314Y-89238867D01*
X112570311Y-89301966D01*
X112584993Y-89327005D01*
X112599531Y-89354586D01*
X112611627Y-89382700D01*
X112621532Y-89413551D01*
X112629494Y-89449344D01*
X112635761Y-89492283D01*
X112640582Y-89544574D01*
X112644206Y-89608419D01*
X112646881Y-89686025D01*
X112648857Y-89779594D01*
X112650382Y-89891333D01*
X112651704Y-90023445D01*
X112652613Y-90143434D01*
X112653020Y-90260063D01*
X112652767Y-90355531D01*
X112651857Y-90429556D01*
X112650293Y-90481855D01*
X112648079Y-90512149D01*
X112645220Y-90520156D01*
X112642161Y-90516858D01*
X112624006Y-90495408D01*
X112594275Y-90458889D01*
X112554639Y-90409442D01*
X112506771Y-90349207D01*
X112452343Y-90280327D01*
X112393027Y-90204943D01*
X112330495Y-90125196D01*
X112266421Y-90043228D01*
X112202475Y-89961180D01*
X112140331Y-89881194D01*
X112081661Y-89805411D01*
X112028137Y-89735973D01*
X111981430Y-89675021D01*
X111943214Y-89624696D01*
X111915161Y-89587140D01*
X111898943Y-89564495D01*
X111853635Y-89492212D01*
X111813661Y-89412463D01*
X111792130Y-89344188D01*
X111788827Y-89286844D01*
X111794116Y-89238867D01*
X110662356Y-89239117D01*
X110701867Y-89269722D01*
X110711248Y-89277089D01*
X110774183Y-89331438D01*
X110842997Y-89399259D01*
X110919596Y-89482516D01*
X111005888Y-89583178D01*
X111023052Y-89603847D01*
X111063833Y-89653409D01*
X111113588Y-89714326D01*
X111170955Y-89784898D01*
X111234569Y-89863424D01*
X111303069Y-89948204D01*
X111375090Y-90037537D01*
X111449270Y-90129722D01*
X111464517Y-90148702D01*
X111524246Y-90223060D01*
X111598653Y-90315848D01*
X111671131Y-90406388D01*
X111740314Y-90492978D01*
X111804841Y-90573918D01*
X111863347Y-90647506D01*
X111914470Y-90712044D01*
X111956847Y-90765829D01*
X111989115Y-90807162D01*
X112009910Y-90834342D01*
X112017869Y-90845668D01*
X112016111Y-90849771D01*
X112003230Y-90870334D01*
X111978885Y-90906561D01*
X111944247Y-90956824D01*
X111900486Y-91019492D01*
X111848775Y-91092936D01*
X111790284Y-91175527D01*
X111726184Y-91265636D01*
X111657646Y-91361631D01*
X111585843Y-91461885D01*
X111511944Y-91564768D01*
X111437121Y-91668650D01*
X111362545Y-91771901D01*
X111289387Y-91872892D01*
X111218819Y-91969994D01*
X111152011Y-92061577D01*
X111090135Y-92146011D01*
X111034361Y-92221667D01*
X110985862Y-92286916D01*
X110945807Y-92340128D01*
X110915369Y-92379673D01*
X110894944Y-92405026D01*
X110848899Y-92459295D01*
X110798612Y-92515775D01*
X110751815Y-92565669D01*
X110660651Y-92659400D01*
X109962445Y-92659400D01*
X110031356Y-92659349D01*
X110129607Y-92659091D01*
X110219030Y-92658637D01*
X110297333Y-92658010D01*
X110362223Y-92657235D01*
X110411411Y-92656335D01*
X110442604Y-92655334D01*
X110453511Y-92654257D01*
X110452322Y-92651037D01*
X110442176Y-92633452D01*
X110425040Y-92607158D01*
X110416540Y-92594691D01*
X110407329Y-92580622D01*
X110399233Y-92566351D01*
X110392185Y-92550479D01*
X110386117Y-92531609D01*
X110380961Y-92508341D01*
X110376651Y-92479278D01*
X110373119Y-92443021D01*
X110370297Y-92398170D01*
X110368118Y-92343328D01*
X110366514Y-92277097D01*
X110365419Y-92198077D01*
X110364765Y-92104871D01*
X110364484Y-91996079D01*
X110364509Y-91870303D01*
X110364772Y-91726145D01*
X110365206Y-91562207D01*
X110365745Y-91377089D01*
X110366279Y-91198232D01*
X110366805Y-91039374D01*
X110367350Y-90900316D01*
X110367945Y-90779665D01*
X110368619Y-90676028D01*
X110369403Y-90588011D01*
X110370326Y-90514223D01*
X110371419Y-90453269D01*
X110372712Y-90403757D01*
X110374235Y-90364293D01*
X110376019Y-90333484D01*
X110378092Y-90309938D01*
X110380486Y-90292260D01*
X110383230Y-90279059D01*
X110386356Y-90268940D01*
X110389892Y-90260511D01*
X110393791Y-90252375D01*
X110413438Y-90215544D01*
X110432225Y-90185391D01*
X110433272Y-90183908D01*
X110447602Y-90161659D01*
X110453511Y-90148702D01*
X110452504Y-90148249D01*
X110435305Y-90146803D01*
X110398656Y-90145480D01*
X110344962Y-90144316D01*
X110276630Y-90143347D01*
X110196064Y-90142611D01*
X110105670Y-90142142D01*
X110007853Y-90141978D01*
X109562195Y-90141978D01*
X109559120Y-91318845D01*
X109556045Y-92495711D01*
X109529407Y-92554622D01*
X109517485Y-92579183D01*
X109500246Y-92609434D01*
X109487074Y-92626560D01*
X109479076Y-92634591D01*
X109471378Y-92649493D01*
X109179942Y-92649493D01*
X109179474Y-92557029D01*
X109179050Y-92441617D01*
X109178706Y-92311160D01*
X109178434Y-92164716D01*
X109178227Y-92001344D01*
X109178076Y-91820101D01*
X109177972Y-91620048D01*
X109177908Y-91400241D01*
X109177876Y-91159739D01*
X109177867Y-90897602D01*
X109177867Y-88706031D01*
X109216249Y-88667649D01*
X109243355Y-88643911D01*
X109270253Y-88632111D01*
X109306560Y-88629267D01*
X109358489Y-88629267D01*
X109358489Y-88717206D01*
X109360427Y-88767102D01*
X109379199Y-88877523D01*
X109416217Y-88978987D01*
X109469369Y-89070152D01*
X109536546Y-89149673D01*
X109615638Y-89216205D01*
X109704534Y-89268406D01*
X109801125Y-89304930D01*
X109903300Y-89324434D01*
X110008950Y-89325573D01*
X110115964Y-89307005D01*
X110222232Y-89267384D01*
X110319219Y-89209516D01*
X110404293Y-89134684D01*
X110473015Y-89046615D01*
X110523918Y-88947616D01*
X110555535Y-88839993D01*
X110566400Y-88726054D01*
X110566400Y-88629267D01*
X112186753Y-88629267D01*
X112397897Y-88629280D01*
X112602020Y-88629330D01*
X112785686Y-88629430D01*
X112949991Y-88629592D01*
X113096029Y-88629829D01*
X113224894Y-88630153D01*
X113337683Y-88630575D01*
X113435488Y-88631109D01*
X113519404Y-88631767D01*
X113590527Y-88632561D01*
X113649950Y-88633504D01*
X113698768Y-88634608D01*
X113738077Y-88635884D01*
X113768969Y-88637347D01*
X113792541Y-88639007D01*
X113809886Y-88640878D01*
X113822099Y-88642972D01*
X113830275Y-88645300D01*
X113835508Y-88647876D01*
X113841504Y-88651445D01*
X113848279Y-88654978D01*
X113854478Y-88658488D01*
X113860126Y-88662918D01*
X113865247Y-88669208D01*
X113869869Y-88678301D01*
X113874015Y-88691139D01*
X113877713Y-88708662D01*
X113880987Y-88731813D01*
X113883863Y-88761534D01*
X113886367Y-88798765D01*
X113888524Y-88844449D01*
X113890360Y-88899527D01*
X113891900Y-88964941D01*
X113893170Y-89041633D01*
X113894195Y-89130544D01*
X113895001Y-89232617D01*
X113895034Y-89238867D01*
X113895614Y-89348792D01*
G36*
X113895614Y-89348792D02*
G01*
X113896059Y-89480011D01*
X113896362Y-89627216D01*
X113896548Y-89791349D01*
X113896642Y-89973352D01*
X113896671Y-90174165D01*
X113896661Y-90394732D01*
X113896636Y-90635992D01*
X113896622Y-90898889D01*
X113896622Y-90941040D01*
X113896646Y-91201668D01*
X113896685Y-91440796D01*
X113896708Y-91659360D01*
X113896687Y-91858295D01*
X113896593Y-92038535D01*
X113896395Y-92201015D01*
X113896063Y-92346670D01*
X113895569Y-92476434D01*
X113894883Y-92591243D01*
X113893976Y-92692030D01*
X113892817Y-92779730D01*
X113891378Y-92855279D01*
X113889629Y-92919611D01*
X113887540Y-92973661D01*
X113885083Y-93018363D01*
X113882227Y-93054652D01*
X113878943Y-93083463D01*
X113875202Y-93105731D01*
X113870974Y-93122390D01*
X113866229Y-93134375D01*
X113860939Y-93142621D01*
X113855073Y-93148062D01*
X113848602Y-93151634D01*
X113841497Y-93154270D01*
X113833728Y-93156906D01*
X113825266Y-93160477D01*
X113820908Y-93162145D01*
X113812395Y-93164111D01*
X113799694Y-93165911D01*
X113781885Y-93167555D01*
X113758049Y-93169047D01*
X113727266Y-93170397D01*
X113688617Y-93171611D01*
X113641182Y-93172697D01*
X113584043Y-93173661D01*
X113516279Y-93174511D01*
X113436971Y-93175253D01*
X113345199Y-93175897D01*
X113240044Y-93176447D01*
X113120587Y-93176913D01*
X112985908Y-93177300D01*
X112835088Y-93177616D01*
X112667206Y-93177869D01*
X112481345Y-93178066D01*
X112276583Y-93178213D01*
X112052002Y-93178318D01*
X111806682Y-93178389D01*
X111539704Y-93178432D01*
X111501321Y-93178437D01*
X111235922Y-93178480D01*
X110992050Y-93178525D01*
X110768783Y-93178548D01*
X110565196Y-93178524D01*
X110380367Y-93178430D01*
X110213373Y-93178243D01*
X110063290Y-93177939D01*
X109929196Y-93177494D01*
X109810166Y-93176885D01*
X109705279Y-93176089D01*
X109613610Y-93175080D01*
X109534237Y-93173837D01*
X109466237Y-93172335D01*
X109408686Y-93170551D01*
X109360662Y-93168461D01*
X109321240Y-93166042D01*
X109289499Y-93163270D01*
X109264514Y-93160121D01*
X109245364Y-93156572D01*
X109231123Y-93152598D01*
X109220871Y-93148178D01*
X109213682Y-93143286D01*
X109208635Y-93137900D01*
X109204805Y-93131996D01*
X109201271Y-93125549D01*
X109197108Y-93118537D01*
X109196025Y-93116687D01*
X109193813Y-93111180D01*
X109191786Y-93102868D01*
X109189938Y-93090809D01*
X109188261Y-93074063D01*
X109186745Y-93051687D01*
X109185383Y-93022740D01*
X109184167Y-92986280D01*
X109183089Y-92941367D01*
X109182140Y-92887057D01*
X109181312Y-92822410D01*
X109180597Y-92746484D01*
X109179987Y-92658338D01*
X109179942Y-92649493D01*
X109471378Y-92649493D01*
X109475260Y-92650765D01*
X109498520Y-92652791D01*
X109540874Y-92654626D01*
X109600132Y-92656227D01*
X109674107Y-92657549D01*
X109760610Y-92658548D01*
X109857452Y-92659180D01*
X109962445Y-92659400D01*
X110660651Y-92659400D01*
X111815090Y-92659400D01*
X111814456Y-92583200D01*
X111815574Y-92541160D01*
X111821304Y-92505334D01*
X111833890Y-92467772D01*
X111855568Y-92419577D01*
X111858789Y-92412897D01*
X111884188Y-92363359D01*
X111910996Y-92315369D01*
X111933917Y-92278466D01*
X111938485Y-92271834D01*
X111960516Y-92240593D01*
X111992693Y-92195654D01*
X112033457Y-92139147D01*
X112081245Y-92073204D01*
X112134498Y-91999957D01*
X112191655Y-91921536D01*
X112251155Y-91840072D01*
X112311437Y-91757698D01*
X112370940Y-91676544D01*
X112428105Y-91598742D01*
X112481370Y-91526423D01*
X112529174Y-91461718D01*
X112569957Y-91406759D01*
X112602158Y-91363676D01*
X112624216Y-91334602D01*
X112634571Y-91321667D01*
X112639044Y-91317351D01*
X112643236Y-91315312D01*
X112646643Y-91317926D01*
X112649325Y-91326986D01*
X112651341Y-91344285D01*
X112652748Y-91371614D01*
X112653605Y-91410765D01*
X112653970Y-91463533D01*
X112653903Y-91531707D01*
X112653460Y-91617082D01*
X112652702Y-91721449D01*
X112651685Y-91846600D01*
X112651308Y-91891300D01*
X112650169Y-92012395D01*
X112648972Y-92113688D01*
X112647636Y-92197262D01*
X112646077Y-92265204D01*
X112644215Y-92319599D01*
X112641966Y-92362532D01*
X112639248Y-92396089D01*
X112635979Y-92422355D01*
X112632078Y-92443416D01*
X112627461Y-92461357D01*
X112619192Y-92487770D01*
X112595583Y-92549772D01*
X112569685Y-92602573D01*
X112544535Y-92639645D01*
X112543339Y-92641075D01*
X112541168Y-92645424D01*
X112543328Y-92649026D01*
X112551644Y-92651951D01*
X112567940Y-92654269D01*
X112594041Y-92656051D01*
X112631771Y-92657367D01*
X112682956Y-92658286D01*
X112749420Y-92658878D01*
X112832987Y-92659215D01*
X112935483Y-92659365D01*
X113058732Y-92659400D01*
X113590296Y-92659400D01*
X113551523Y-92601783D01*
X113545432Y-92592893D01*
X113534976Y-92578069D01*
X113525579Y-92564422D01*
X113517183Y-92550765D01*
X113509733Y-92535911D01*
X113503173Y-92518670D01*
X113497446Y-92497855D01*
X113492495Y-92472280D01*
X113488266Y-92440755D01*
X113484701Y-92402093D01*
X113481744Y-92355107D01*
X113479340Y-92298608D01*
X113477431Y-92231409D01*
X113475962Y-92152322D01*
X113474876Y-92060160D01*
X113474118Y-91953734D01*
X113473630Y-91831857D01*
X113473358Y-91693341D01*
X113473243Y-91536999D01*
X113473231Y-91361642D01*
X113473265Y-91166082D01*
X113473289Y-90949133D01*
X113473280Y-90826513D01*
X113473243Y-90621447D01*
X113473227Y-90437116D01*
X113473288Y-90272334D01*
X113473484Y-90125916D01*
X113473870Y-89996674D01*
X113474505Y-89883422D01*
X113475444Y-89784975D01*
X113476745Y-89700144D01*
X113478464Y-89627744D01*
X113480659Y-89566589D01*
X113483385Y-89515492D01*
X113486701Y-89473267D01*
X113490662Y-89438727D01*
X113495325Y-89410686D01*
X113500747Y-89387958D01*
X113506986Y-89369356D01*
X113514097Y-89353693D01*
X113522138Y-89339784D01*
X113531166Y-89326441D01*
X113541236Y-89312479D01*
X113552407Y-89296711D01*
X113592197Y-89238867D01*
X112532314Y-89238867D01*
X112570311Y-89301966D01*
X112584993Y-89327005D01*
X112599531Y-89354586D01*
X112611627Y-89382700D01*
X112621532Y-89413551D01*
X112629494Y-89449344D01*
X112635761Y-89492283D01*
X112640582Y-89544574D01*
X112644206Y-89608419D01*
X112646881Y-89686025D01*
X112648857Y-89779594D01*
X112650382Y-89891333D01*
X112651704Y-90023445D01*
X112652613Y-90143434D01*
X112653020Y-90260063D01*
X112652767Y-90355531D01*
X112651857Y-90429556D01*
X112650293Y-90481855D01*
X112648079Y-90512149D01*
X112645220Y-90520156D01*
X112642161Y-90516858D01*
X112624006Y-90495408D01*
X112594275Y-90458889D01*
X112554639Y-90409442D01*
X112506771Y-90349207D01*
X112452343Y-90280327D01*
X112393027Y-90204943D01*
X112330495Y-90125196D01*
X112266421Y-90043228D01*
X112202475Y-89961180D01*
X112140331Y-89881194D01*
X112081661Y-89805411D01*
X112028137Y-89735973D01*
X111981430Y-89675021D01*
X111943214Y-89624696D01*
X111915161Y-89587140D01*
X111898943Y-89564495D01*
X111853635Y-89492212D01*
X111813661Y-89412463D01*
X111792130Y-89344188D01*
X111788827Y-89286844D01*
X111794116Y-89238867D01*
X110662356Y-89239117D01*
X110701867Y-89269722D01*
X110711248Y-89277089D01*
X110774183Y-89331438D01*
X110842997Y-89399259D01*
X110919596Y-89482516D01*
X111005888Y-89583178D01*
X111023052Y-89603847D01*
X111063833Y-89653409D01*
X111113588Y-89714326D01*
X111170955Y-89784898D01*
X111234569Y-89863424D01*
X111303069Y-89948204D01*
X111375090Y-90037537D01*
X111449270Y-90129722D01*
X111464517Y-90148702D01*
X111524246Y-90223060D01*
X111598653Y-90315848D01*
X111671131Y-90406388D01*
X111740314Y-90492978D01*
X111804841Y-90573918D01*
X111863347Y-90647506D01*
X111914470Y-90712044D01*
X111956847Y-90765829D01*
X111989115Y-90807162D01*
X112009910Y-90834342D01*
X112017869Y-90845668D01*
X112016111Y-90849771D01*
X112003230Y-90870334D01*
X111978885Y-90906561D01*
X111944247Y-90956824D01*
X111900486Y-91019492D01*
X111848775Y-91092936D01*
X111790284Y-91175527D01*
X111726184Y-91265636D01*
X111657646Y-91361631D01*
X111585843Y-91461885D01*
X111511944Y-91564768D01*
X111437121Y-91668650D01*
X111362545Y-91771901D01*
X111289387Y-91872892D01*
X111218819Y-91969994D01*
X111152011Y-92061577D01*
X111090135Y-92146011D01*
X111034361Y-92221667D01*
X110985862Y-92286916D01*
X110945807Y-92340128D01*
X110915369Y-92379673D01*
X110894944Y-92405026D01*
X110848899Y-92459295D01*
X110798612Y-92515775D01*
X110751815Y-92565669D01*
X110660651Y-92659400D01*
X109962445Y-92659400D01*
X110031356Y-92659349D01*
X110129607Y-92659091D01*
X110219030Y-92658637D01*
X110297333Y-92658010D01*
X110362223Y-92657235D01*
X110411411Y-92656335D01*
X110442604Y-92655334D01*
X110453511Y-92654257D01*
X110452322Y-92651037D01*
X110442176Y-92633452D01*
X110425040Y-92607158D01*
X110416540Y-92594691D01*
X110407329Y-92580622D01*
X110399233Y-92566351D01*
X110392185Y-92550479D01*
X110386117Y-92531609D01*
X110380961Y-92508341D01*
X110376651Y-92479278D01*
X110373119Y-92443021D01*
X110370297Y-92398170D01*
X110368118Y-92343328D01*
X110366514Y-92277097D01*
X110365419Y-92198077D01*
X110364765Y-92104871D01*
X110364484Y-91996079D01*
X110364509Y-91870303D01*
X110364772Y-91726145D01*
X110365206Y-91562207D01*
X110365745Y-91377089D01*
X110366279Y-91198232D01*
X110366805Y-91039374D01*
X110367350Y-90900316D01*
X110367945Y-90779665D01*
X110368619Y-90676028D01*
X110369403Y-90588011D01*
X110370326Y-90514223D01*
X110371419Y-90453269D01*
X110372712Y-90403757D01*
X110374235Y-90364293D01*
X110376019Y-90333484D01*
X110378092Y-90309938D01*
X110380486Y-90292260D01*
X110383230Y-90279059D01*
X110386356Y-90268940D01*
X110389892Y-90260511D01*
X110393791Y-90252375D01*
X110413438Y-90215544D01*
X110432225Y-90185391D01*
X110433272Y-90183908D01*
X110447602Y-90161659D01*
X110453511Y-90148702D01*
X110452504Y-90148249D01*
X110435305Y-90146803D01*
X110398656Y-90145480D01*
X110344962Y-90144316D01*
X110276630Y-90143347D01*
X110196064Y-90142611D01*
X110105670Y-90142142D01*
X110007853Y-90141978D01*
X109562195Y-90141978D01*
X109559120Y-91318845D01*
X109556045Y-92495711D01*
X109529407Y-92554622D01*
X109517485Y-92579183D01*
X109500246Y-92609434D01*
X109487074Y-92626560D01*
X109479076Y-92634591D01*
X109471378Y-92649493D01*
X109179942Y-92649493D01*
X109179474Y-92557029D01*
X109179050Y-92441617D01*
X109178706Y-92311160D01*
X109178434Y-92164716D01*
X109178227Y-92001344D01*
X109178076Y-91820101D01*
X109177972Y-91620048D01*
X109177908Y-91400241D01*
X109177876Y-91159739D01*
X109177867Y-90897602D01*
X109177867Y-88706031D01*
X109216249Y-88667649D01*
X109243355Y-88643911D01*
X109270253Y-88632111D01*
X109306560Y-88629267D01*
X109358489Y-88629267D01*
X109358489Y-88717206D01*
X109360427Y-88767102D01*
X109379199Y-88877523D01*
X109416217Y-88978987D01*
X109469369Y-89070152D01*
X109536546Y-89149673D01*
X109615638Y-89216205D01*
X109704534Y-89268406D01*
X109801125Y-89304930D01*
X109903300Y-89324434D01*
X110008950Y-89325573D01*
X110115964Y-89307005D01*
X110222232Y-89267384D01*
X110319219Y-89209516D01*
X110404293Y-89134684D01*
X110473015Y-89046615D01*
X110523918Y-88947616D01*
X110555535Y-88839993D01*
X110566400Y-88726054D01*
X110566400Y-88629267D01*
X112186753Y-88629267D01*
X112397897Y-88629280D01*
X112602020Y-88629330D01*
X112785686Y-88629430D01*
X112949991Y-88629592D01*
X113096029Y-88629829D01*
X113224894Y-88630153D01*
X113337683Y-88630575D01*
X113435488Y-88631109D01*
X113519404Y-88631767D01*
X113590527Y-88632561D01*
X113649950Y-88633504D01*
X113698768Y-88634608D01*
X113738077Y-88635884D01*
X113768969Y-88637347D01*
X113792541Y-88639007D01*
X113809886Y-88640878D01*
X113822099Y-88642972D01*
X113830275Y-88645300D01*
X113835508Y-88647876D01*
X113841504Y-88651445D01*
X113848279Y-88654978D01*
X113854478Y-88658488D01*
X113860126Y-88662918D01*
X113865247Y-88669208D01*
X113869869Y-88678301D01*
X113874015Y-88691139D01*
X113877713Y-88708662D01*
X113880987Y-88731813D01*
X113883863Y-88761534D01*
X113886367Y-88798765D01*
X113888524Y-88844449D01*
X113890360Y-88899527D01*
X113891900Y-88964941D01*
X113893170Y-89041633D01*
X113894195Y-89130544D01*
X113895001Y-89232617D01*
X113895034Y-89238867D01*
X113895614Y-89348792D01*
G37*
X110074562Y-88269850D02*
X110157313Y-88297053D01*
X110232406Y-88342484D01*
X110304298Y-88408302D01*
X110342846Y-88452567D01*
X110382256Y-88510961D01*
X110407446Y-88571586D01*
X110420861Y-88640865D01*
X110424948Y-88725222D01*
X110424669Y-88771307D01*
X110422460Y-88812450D01*
X110416894Y-88844582D01*
X110406586Y-88875122D01*
X110390148Y-88911489D01*
X110376200Y-88938728D01*
X110317665Y-89024429D01*
X110245619Y-89093617D01*
X110161947Y-89144741D01*
X110068531Y-89176250D01*
X110035434Y-89183225D01*
X109994960Y-89190094D01*
X109961999Y-89191919D01*
X109927698Y-89188947D01*
X109883200Y-89181426D01*
X109831934Y-89169002D01*
X109741434Y-89131112D01*
X109662345Y-89076836D01*
X109596528Y-89008770D01*
X109545840Y-88929511D01*
X109512140Y-88841654D01*
X109497286Y-88747795D01*
X109503136Y-88650530D01*
X109529399Y-88554220D01*
X109574418Y-88465494D01*
X109635373Y-88390419D01*
X109710184Y-88330641D01*
X109796768Y-88287809D01*
X109893043Y-88263571D01*
X109996928Y-88259576D01*
X110074562Y-88269850D01*
G36*
X110074562Y-88269850D02*
G01*
X110157313Y-88297053D01*
X110232406Y-88342484D01*
X110304298Y-88408302D01*
X110342846Y-88452567D01*
X110382256Y-88510961D01*
X110407446Y-88571586D01*
X110420861Y-88640865D01*
X110424948Y-88725222D01*
X110424669Y-88771307D01*
X110422460Y-88812450D01*
X110416894Y-88844582D01*
X110406586Y-88875122D01*
X110390148Y-88911489D01*
X110376200Y-88938728D01*
X110317665Y-89024429D01*
X110245619Y-89093617D01*
X110161947Y-89144741D01*
X110068531Y-89176250D01*
X110035434Y-89183225D01*
X109994960Y-89190094D01*
X109961999Y-89191919D01*
X109927698Y-89188947D01*
X109883200Y-89181426D01*
X109831934Y-89169002D01*
X109741434Y-89131112D01*
X109662345Y-89076836D01*
X109596528Y-89008770D01*
X109545840Y-88929511D01*
X109512140Y-88841654D01*
X109497286Y-88747795D01*
X109503136Y-88650530D01*
X109529399Y-88554220D01*
X109574418Y-88465494D01*
X109635373Y-88390419D01*
X109710184Y-88330641D01*
X109796768Y-88287809D01*
X109893043Y-88263571D01*
X109996928Y-88259576D01*
X110074562Y-88269850D01*
G37*
X108951893Y-93504892D02*
X108963301Y-93511029D01*
X108973850Y-93521691D01*
X108985136Y-93535811D01*
X108989589Y-93541772D01*
X108995588Y-93552268D01*
X109000167Y-93566093D01*
X109003519Y-93585998D01*
X109005833Y-93614732D01*
X109007301Y-93655045D01*
X109008113Y-93709687D01*
X109008460Y-93781407D01*
X109008534Y-93872956D01*
X109008511Y-93931486D01*
X109008292Y-94010573D01*
X109007683Y-94071516D01*
X109006492Y-94117062D01*
X109004529Y-94149963D01*
X109001603Y-94172968D01*
X108997523Y-94188826D01*
X108992097Y-94200286D01*
X108985136Y-94210100D01*
X108954708Y-94234493D01*
X108919765Y-94237372D01*
X108882784Y-94218282D01*
X108878600Y-94214807D01*
X108870424Y-94206279D01*
X108864364Y-94194728D01*
X108859981Y-94176896D01*
X108856839Y-94149524D01*
X108854502Y-94109354D01*
X108852531Y-94053128D01*
X108850489Y-93977589D01*
X108844845Y-93758458D01*
X108579556Y-93999099D01*
X108505722Y-94065875D01*
X108440542Y-94123991D01*
X108388348Y-94168949D01*
X108347273Y-94201871D01*
X108315455Y-94223879D01*
X108291026Y-94236094D01*
X108272124Y-94239639D01*
X108256883Y-94235636D01*
X108243439Y-94225207D01*
X108229927Y-94209474D01*
X108223682Y-94200991D01*
X108218050Y-94190413D01*
X108213839Y-94176255D01*
X108210887Y-94155803D01*
X108209032Y-94126342D01*
X108208113Y-94085161D01*
X108207968Y-94029544D01*
X108208435Y-93956779D01*
X108209352Y-93864151D01*
X108212667Y-93549199D01*
X108239318Y-93527633D01*
X108265383Y-93511441D01*
X108298241Y-93508670D01*
X108332772Y-93527623D01*
X108337084Y-93531208D01*
X108345216Y-93539737D01*
X108351245Y-93551329D01*
X108355606Y-93569235D01*
X108358734Y-93596706D01*
X108361063Y-93636994D01*
X108363029Y-93693351D01*
X108365067Y-93769029D01*
X108370711Y-93988878D01*
X108551334Y-93825084D01*
X108638072Y-93746451D01*
X108713843Y-93678058D01*
X108775980Y-93622708D01*
X108826078Y-93579338D01*
X108865735Y-93546881D01*
X108896548Y-93524273D01*
X108920114Y-93510448D01*
X108938030Y-93504343D01*
X108951893Y-93504892D01*
G36*
X108951893Y-93504892D02*
G01*
X108963301Y-93511029D01*
X108973850Y-93521691D01*
X108985136Y-93535811D01*
X108989589Y-93541772D01*
X108995588Y-93552268D01*
X109000167Y-93566093D01*
X109003519Y-93585998D01*
X109005833Y-93614732D01*
X109007301Y-93655045D01*
X109008113Y-93709687D01*
X109008460Y-93781407D01*
X109008534Y-93872956D01*
X109008511Y-93931486D01*
X109008292Y-94010573D01*
X109007683Y-94071516D01*
X109006492Y-94117062D01*
X109004529Y-94149963D01*
X109001603Y-94172968D01*
X108997523Y-94188826D01*
X108992097Y-94200286D01*
X108985136Y-94210100D01*
X108954708Y-94234493D01*
X108919765Y-94237372D01*
X108882784Y-94218282D01*
X108878600Y-94214807D01*
X108870424Y-94206279D01*
X108864364Y-94194728D01*
X108859981Y-94176896D01*
X108856839Y-94149524D01*
X108854502Y-94109354D01*
X108852531Y-94053128D01*
X108850489Y-93977589D01*
X108844845Y-93758458D01*
X108579556Y-93999099D01*
X108505722Y-94065875D01*
X108440542Y-94123991D01*
X108388348Y-94168949D01*
X108347273Y-94201871D01*
X108315455Y-94223879D01*
X108291026Y-94236094D01*
X108272124Y-94239639D01*
X108256883Y-94235636D01*
X108243439Y-94225207D01*
X108229927Y-94209474D01*
X108223682Y-94200991D01*
X108218050Y-94190413D01*
X108213839Y-94176255D01*
X108210887Y-94155803D01*
X108209032Y-94126342D01*
X108208113Y-94085161D01*
X108207968Y-94029544D01*
X108208435Y-93956779D01*
X108209352Y-93864151D01*
X108212667Y-93549199D01*
X108239318Y-93527633D01*
X108265383Y-93511441D01*
X108298241Y-93508670D01*
X108332772Y-93527623D01*
X108337084Y-93531208D01*
X108345216Y-93539737D01*
X108351245Y-93551329D01*
X108355606Y-93569235D01*
X108358734Y-93596706D01*
X108361063Y-93636994D01*
X108363029Y-93693351D01*
X108365067Y-93769029D01*
X108370711Y-93988878D01*
X108551334Y-93825084D01*
X108638072Y-93746451D01*
X108713843Y-93678058D01*
X108775980Y-93622708D01*
X108826078Y-93579338D01*
X108865735Y-93546881D01*
X108896548Y-93524273D01*
X108920114Y-93510448D01*
X108938030Y-93504343D01*
X108951893Y-93504892D01*
G37*
X112476734Y-93506083D02*
X112553831Y-93506275D01*
X112612777Y-93506860D01*
X112656364Y-93508051D01*
X112687383Y-93510064D01*
X112708625Y-93513112D01*
X112722882Y-93517409D01*
X112732945Y-93523172D01*
X112741606Y-93530612D01*
X112743391Y-93532293D01*
X112750635Y-93539832D01*
X112756277Y-93548850D01*
X112760517Y-93561984D01*
X112763556Y-93581872D01*
X112765594Y-93611151D01*
X112766830Y-93652458D01*
X112767465Y-93708431D01*
X112767700Y-93781707D01*
X112767734Y-93874923D01*
X112767697Y-93947713D01*
X112767448Y-94025889D01*
X112766812Y-94086103D01*
X112765615Y-94130982D01*
X112763684Y-94163152D01*
X112760846Y-94185239D01*
X112756927Y-94199870D01*
X112751755Y-94209670D01*
X112745156Y-94217267D01*
X112741822Y-94220444D01*
X112733300Y-94226554D01*
X112721298Y-94231229D01*
X112703087Y-94234659D01*
X112675940Y-94237036D01*
X112637129Y-94238552D01*
X112583924Y-94239398D01*
X112513598Y-94239765D01*
X112423422Y-94239845D01*
X112381314Y-94239833D01*
X112300167Y-94239651D01*
X112237675Y-94239098D01*
X112191109Y-94237982D01*
X112157741Y-94236113D01*
X112134844Y-94233298D01*
X112119688Y-94229346D01*
X112109546Y-94224066D01*
X112101689Y-94217267D01*
X112086963Y-94195667D01*
X112079111Y-94166467D01*
X112084610Y-94142560D01*
X112101689Y-94115667D01*
X112106668Y-94111059D01*
X112116443Y-94104772D01*
X112130559Y-94100146D01*
X112152054Y-94096930D01*
X112183968Y-94094870D01*
X112229342Y-94093712D01*
X112291213Y-94093202D01*
X112372622Y-94093089D01*
X112620978Y-94093089D01*
X112620978Y-93935045D01*
X112459801Y-93935045D01*
X112423983Y-93934899D01*
X112358359Y-93933176D01*
X112311118Y-93928741D01*
X112279383Y-93920637D01*
X112260277Y-93907906D01*
X112250923Y-93889592D01*
X112248445Y-93864738D01*
X112249242Y-93844482D01*
X112254494Y-93822656D01*
X112267288Y-93807304D01*
X112290628Y-93797309D01*
X112327517Y-93791553D01*
X112380959Y-93788919D01*
X112453958Y-93788289D01*
X112622105Y-93788289D01*
X112618719Y-93723378D01*
X112615334Y-93658467D01*
X112367617Y-93655418D01*
X112305026Y-93654539D01*
X112236565Y-93653095D01*
X112185661Y-93651164D01*
X112149408Y-93648514D01*
X112124901Y-93644910D01*
X112109235Y-93640121D01*
X112099506Y-93633913D01*
X112093491Y-93627510D01*
X112080482Y-93595828D01*
X112084043Y-93560142D01*
X112103818Y-93529084D01*
X112107069Y-93526161D01*
X112116049Y-93519810D01*
X112128153Y-93514957D01*
X112146159Y-93511403D01*
X112172847Y-93508946D01*
X112210997Y-93507385D01*
X112263386Y-93506518D01*
X112332794Y-93506146D01*
X112422001Y-93506067D01*
X112476734Y-93506083D01*
G36*
X112476734Y-93506083D02*
G01*
X112553831Y-93506275D01*
X112612777Y-93506860D01*
X112656364Y-93508051D01*
X112687383Y-93510064D01*
X112708625Y-93513112D01*
X112722882Y-93517409D01*
X112732945Y-93523172D01*
X112741606Y-93530612D01*
X112743391Y-93532293D01*
X112750635Y-93539832D01*
X112756277Y-93548850D01*
X112760517Y-93561984D01*
X112763556Y-93581872D01*
X112765594Y-93611151D01*
X112766830Y-93652458D01*
X112767465Y-93708431D01*
X112767700Y-93781707D01*
X112767734Y-93874923D01*
X112767697Y-93947713D01*
X112767448Y-94025889D01*
X112766812Y-94086103D01*
X112765615Y-94130982D01*
X112763684Y-94163152D01*
X112760846Y-94185239D01*
X112756927Y-94199870D01*
X112751755Y-94209670D01*
X112745156Y-94217267D01*
X112741822Y-94220444D01*
X112733300Y-94226554D01*
X112721298Y-94231229D01*
X112703087Y-94234659D01*
X112675940Y-94237036D01*
X112637129Y-94238552D01*
X112583924Y-94239398D01*
X112513598Y-94239765D01*
X112423422Y-94239845D01*
X112381314Y-94239833D01*
X112300167Y-94239651D01*
X112237675Y-94239098D01*
X112191109Y-94237982D01*
X112157741Y-94236113D01*
X112134844Y-94233298D01*
X112119688Y-94229346D01*
X112109546Y-94224066D01*
X112101689Y-94217267D01*
X112086963Y-94195667D01*
X112079111Y-94166467D01*
X112084610Y-94142560D01*
X112101689Y-94115667D01*
X112106668Y-94111059D01*
X112116443Y-94104772D01*
X112130559Y-94100146D01*
X112152054Y-94096930D01*
X112183968Y-94094870D01*
X112229342Y-94093712D01*
X112291213Y-94093202D01*
X112372622Y-94093089D01*
X112620978Y-94093089D01*
X112620978Y-93935045D01*
X112459801Y-93935045D01*
X112423983Y-93934899D01*
X112358359Y-93933176D01*
X112311118Y-93928741D01*
X112279383Y-93920637D01*
X112260277Y-93907906D01*
X112250923Y-93889592D01*
X112248445Y-93864738D01*
X112249242Y-93844482D01*
X112254494Y-93822656D01*
X112267288Y-93807304D01*
X112290628Y-93797309D01*
X112327517Y-93791553D01*
X112380959Y-93788919D01*
X112453958Y-93788289D01*
X112622105Y-93788289D01*
X112618719Y-93723378D01*
X112615334Y-93658467D01*
X112367617Y-93655418D01*
X112305026Y-93654539D01*
X112236565Y-93653095D01*
X112185661Y-93651164D01*
X112149408Y-93648514D01*
X112124901Y-93644910D01*
X112109235Y-93640121D01*
X112099506Y-93633913D01*
X112093491Y-93627510D01*
X112080482Y-93595828D01*
X112084043Y-93560142D01*
X112103818Y-93529084D01*
X112107069Y-93526161D01*
X112116049Y-93519810D01*
X112128153Y-93514957D01*
X112146159Y-93511403D01*
X112172847Y-93508946D01*
X112210997Y-93507385D01*
X112263386Y-93506518D01*
X112332794Y-93506146D01*
X112422001Y-93506067D01*
X112476734Y-93506083D01*
G37*
X107799803Y-93535811D02*
X107804752Y-93542495D01*
X107810596Y-93553066D01*
X107815057Y-93567153D01*
X107818321Y-93587478D01*
X107820574Y-93616765D01*
X107822002Y-93657737D01*
X107822792Y-93713117D01*
X107823129Y-93785628D01*
X107823200Y-93877994D01*
X107823171Y-93943911D01*
X107822939Y-94022228D01*
X107822319Y-94082496D01*
X107821126Y-94127393D01*
X107819179Y-94159602D01*
X107816294Y-94181800D01*
X107812288Y-94196669D01*
X107806979Y-94206889D01*
X107800183Y-94215138D01*
X107795668Y-94219795D01*
X107787438Y-94226282D01*
X107776078Y-94231194D01*
X107758810Y-94234749D01*
X107732855Y-94237167D01*
X107695436Y-94238667D01*
X107643773Y-94239467D01*
X107575089Y-94239787D01*
X107486606Y-94239845D01*
X107466931Y-94239838D01*
X107379906Y-94239572D01*
X107312254Y-94238806D01*
X107261299Y-94237392D01*
X107224367Y-94235180D01*
X107198783Y-94232022D01*
X107181871Y-94227769D01*
X107170957Y-94222271D01*
X107160464Y-94212285D01*
X107147203Y-94181168D01*
X107148386Y-94145280D01*
X107164550Y-94113733D01*
X107166739Y-94111457D01*
X107175427Y-94105189D01*
X107188769Y-94100523D01*
X107209752Y-94097227D01*
X107241363Y-94095068D01*
X107286590Y-94093814D01*
X107348420Y-94093231D01*
X107429839Y-94093089D01*
X107676445Y-94093089D01*
X107676445Y-93935045D01*
X107514006Y-93935045D01*
X107478338Y-93934964D01*
X107422568Y-93934167D01*
X107383430Y-93932162D01*
X107356976Y-93928521D01*
X107339259Y-93922812D01*
X107326329Y-93914607D01*
X107322686Y-93911423D01*
X107304278Y-93880448D01*
X107303644Y-93844112D01*
X107321183Y-93810493D01*
X107321245Y-93810424D01*
X107330916Y-93801798D01*
X107344209Y-93795742D01*
X107364917Y-93791811D01*
X107396828Y-93789556D01*
X107443734Y-93788531D01*
X107509424Y-93788289D01*
X107677571Y-93788289D01*
X107674186Y-93723378D01*
X107670800Y-93658467D01*
X107428723Y-93655414D01*
X107403707Y-93655086D01*
X107322087Y-93653606D01*
X107259768Y-93651222D01*
X107214154Y-93647227D01*
X107182652Y-93640913D01*
X107162667Y-93631574D01*
X107151604Y-93618503D01*
X107146869Y-93600992D01*
X107145867Y-93578335D01*
X107145873Y-93575970D01*
X107147027Y-93555939D01*
X107151824Y-93540146D01*
X107162632Y-93528090D01*
X107181817Y-93519267D01*
X107211745Y-93513175D01*
X107254783Y-93509311D01*
X107313299Y-93507174D01*
X107389657Y-93506260D01*
X107486226Y-93506067D01*
X107776406Y-93506067D01*
X107799803Y-93535811D01*
G36*
X107799803Y-93535811D02*
G01*
X107804752Y-93542495D01*
X107810596Y-93553066D01*
X107815057Y-93567153D01*
X107818321Y-93587478D01*
X107820574Y-93616765D01*
X107822002Y-93657737D01*
X107822792Y-93713117D01*
X107823129Y-93785628D01*
X107823200Y-93877994D01*
X107823171Y-93943911D01*
X107822939Y-94022228D01*
X107822319Y-94082496D01*
X107821126Y-94127393D01*
X107819179Y-94159602D01*
X107816294Y-94181800D01*
X107812288Y-94196669D01*
X107806979Y-94206889D01*
X107800183Y-94215138D01*
X107795668Y-94219795D01*
X107787438Y-94226282D01*
X107776078Y-94231194D01*
X107758810Y-94234749D01*
X107732855Y-94237167D01*
X107695436Y-94238667D01*
X107643773Y-94239467D01*
X107575089Y-94239787D01*
X107486606Y-94239845D01*
X107466931Y-94239838D01*
X107379906Y-94239572D01*
X107312254Y-94238806D01*
X107261299Y-94237392D01*
X107224367Y-94235180D01*
X107198783Y-94232022D01*
X107181871Y-94227769D01*
X107170957Y-94222271D01*
X107160464Y-94212285D01*
X107147203Y-94181168D01*
X107148386Y-94145280D01*
X107164550Y-94113733D01*
X107166739Y-94111457D01*
X107175427Y-94105189D01*
X107188769Y-94100523D01*
X107209752Y-94097227D01*
X107241363Y-94095068D01*
X107286590Y-94093814D01*
X107348420Y-94093231D01*
X107429839Y-94093089D01*
X107676445Y-94093089D01*
X107676445Y-93935045D01*
X107514006Y-93935045D01*
X107478338Y-93934964D01*
X107422568Y-93934167D01*
X107383430Y-93932162D01*
X107356976Y-93928521D01*
X107339259Y-93922812D01*
X107326329Y-93914607D01*
X107322686Y-93911423D01*
X107304278Y-93880448D01*
X107303644Y-93844112D01*
X107321183Y-93810493D01*
X107321245Y-93810424D01*
X107330916Y-93801798D01*
X107344209Y-93795742D01*
X107364917Y-93791811D01*
X107396828Y-93789556D01*
X107443734Y-93788531D01*
X107509424Y-93788289D01*
X107677571Y-93788289D01*
X107674186Y-93723378D01*
X107670800Y-93658467D01*
X107428723Y-93655414D01*
X107403707Y-93655086D01*
X107322087Y-93653606D01*
X107259768Y-93651222D01*
X107214154Y-93647227D01*
X107182652Y-93640913D01*
X107162667Y-93631574D01*
X107151604Y-93618503D01*
X107146869Y-93600992D01*
X107145867Y-93578335D01*
X107145873Y-93575970D01*
X107147027Y-93555939D01*
X107151824Y-93540146D01*
X107162632Y-93528090D01*
X107181817Y-93519267D01*
X107211745Y-93513175D01*
X107254783Y-93509311D01*
X107313299Y-93507174D01*
X107389657Y-93506260D01*
X107486226Y-93506067D01*
X107776406Y-93506067D01*
X107799803Y-93535811D01*
G37*
X103475406Y-93511949D02*
X103501127Y-93527647D01*
X103527778Y-93549227D01*
X103527778Y-94196684D01*
X103501127Y-94218264D01*
X103469767Y-94235739D01*
X103433966Y-94236575D01*
X103402528Y-94216082D01*
X103398652Y-94211416D01*
X103393186Y-94201949D01*
X103388979Y-94188267D01*
X103385867Y-94167748D01*
X103383687Y-94137768D01*
X103382276Y-94095704D01*
X103381471Y-94038932D01*
X103381107Y-93964830D01*
X103381022Y-93870773D01*
X103381022Y-93549227D01*
X103407673Y-93527647D01*
X103431386Y-93512877D01*
X103454400Y-93506067D01*
X103475406Y-93511949D01*
G36*
X103475406Y-93511949D02*
G01*
X103501127Y-93527647D01*
X103527778Y-93549227D01*
X103527778Y-94196684D01*
X103501127Y-94218264D01*
X103469767Y-94235739D01*
X103433966Y-94236575D01*
X103402528Y-94216082D01*
X103398652Y-94211416D01*
X103393186Y-94201949D01*
X103388979Y-94188267D01*
X103385867Y-94167748D01*
X103383687Y-94137768D01*
X103382276Y-94095704D01*
X103381471Y-94038932D01*
X103381107Y-93964830D01*
X103381022Y-93870773D01*
X103381022Y-93549227D01*
X103407673Y-93527647D01*
X103431386Y-93512877D01*
X103454400Y-93506067D01*
X103475406Y-93511949D01*
G37*
X102099734Y-93528645D02*
X102105366Y-93534835D01*
X102110456Y-93543041D01*
X102114543Y-93554817D01*
X102117721Y-93572276D01*
X102120087Y-93597530D01*
X102121738Y-93632690D01*
X102122769Y-93679869D01*
X102123277Y-93741177D01*
X102123359Y-93818727D01*
X102123109Y-93914631D01*
X102122625Y-94031000D01*
X102122557Y-94045175D01*
X102121971Y-94106937D01*
X102120648Y-94150620D01*
X102118103Y-94180001D01*
X102113848Y-94198855D01*
X102107396Y-94210959D01*
X102098262Y-94220089D01*
X102064804Y-94237506D01*
X102029856Y-94234604D01*
X101998953Y-94210100D01*
X101989944Y-94196897D01*
X101982492Y-94178361D01*
X101978124Y-94152333D01*
X101976069Y-94113787D01*
X101975556Y-94057700D01*
X101975556Y-93935045D01*
X101478845Y-93935045D01*
X101478845Y-94069871D01*
X101478772Y-94105662D01*
X101478009Y-94151992D01*
X101475833Y-94182526D01*
X101471536Y-94201557D01*
X101464412Y-94213374D01*
X101453755Y-94222271D01*
X101421504Y-94237341D01*
X101386217Y-94234673D01*
X101355486Y-94210100D01*
X101350831Y-94203845D01*
X101344895Y-94193321D01*
X101340364Y-94179391D01*
X101337048Y-94159317D01*
X101334759Y-94130360D01*
X101333308Y-94089780D01*
X101332505Y-94034840D01*
X101332162Y-93962799D01*
X101332089Y-93870920D01*
X101332089Y-93561485D01*
X101359798Y-93533776D01*
X101391177Y-93511533D01*
X101424406Y-93508844D01*
X101456267Y-93528645D01*
X101464553Y-93538415D01*
X101471965Y-93554307D01*
X101476302Y-93578275D01*
X101478338Y-93615148D01*
X101478845Y-93669756D01*
X101478845Y-93788289D01*
X101975556Y-93788289D01*
X101975556Y-93672776D01*
X101975994Y-93621078D01*
X101977958Y-93586554D01*
X101982474Y-93563978D01*
X101990567Y-93548126D01*
X102003265Y-93533776D01*
X102034643Y-93511533D01*
X102067872Y-93508844D01*
X102099734Y-93528645D01*
G36*
X102099734Y-93528645D02*
G01*
X102105366Y-93534835D01*
X102110456Y-93543041D01*
X102114543Y-93554817D01*
X102117721Y-93572276D01*
X102120087Y-93597530D01*
X102121738Y-93632690D01*
X102122769Y-93679869D01*
X102123277Y-93741177D01*
X102123359Y-93818727D01*
X102123109Y-93914631D01*
X102122625Y-94031000D01*
X102122557Y-94045175D01*
X102121971Y-94106937D01*
X102120648Y-94150620D01*
X102118103Y-94180001D01*
X102113848Y-94198855D01*
X102107396Y-94210959D01*
X102098262Y-94220089D01*
X102064804Y-94237506D01*
X102029856Y-94234604D01*
X101998953Y-94210100D01*
X101989944Y-94196897D01*
X101982492Y-94178361D01*
X101978124Y-94152333D01*
X101976069Y-94113787D01*
X101975556Y-94057700D01*
X101975556Y-93935045D01*
X101478845Y-93935045D01*
X101478845Y-94069871D01*
X101478772Y-94105662D01*
X101478009Y-94151992D01*
X101475833Y-94182526D01*
X101471536Y-94201557D01*
X101464412Y-94213374D01*
X101453755Y-94222271D01*
X101421504Y-94237341D01*
X101386217Y-94234673D01*
X101355486Y-94210100D01*
X101350831Y-94203845D01*
X101344895Y-94193321D01*
X101340364Y-94179391D01*
X101337048Y-94159317D01*
X101334759Y-94130360D01*
X101333308Y-94089780D01*
X101332505Y-94034840D01*
X101332162Y-93962799D01*
X101332089Y-93870920D01*
X101332089Y-93561485D01*
X101359798Y-93533776D01*
X101391177Y-93511533D01*
X101424406Y-93508844D01*
X101456267Y-93528645D01*
X101464553Y-93538415D01*
X101471965Y-93554307D01*
X101476302Y-93578275D01*
X101478338Y-93615148D01*
X101478845Y-93669756D01*
X101478845Y-93788289D01*
X101975556Y-93788289D01*
X101975556Y-93672776D01*
X101975994Y-93621078D01*
X101977958Y-93586554D01*
X101982474Y-93563978D01*
X101990567Y-93548126D01*
X102003265Y-93533776D01*
X102034643Y-93511533D01*
X102067872Y-93508844D01*
X102099734Y-93528645D01*
G37*
X109749150Y-93511179D02*
X109855157Y-93527494D01*
X109948969Y-93555545D01*
X110027765Y-93594452D01*
X110088719Y-93643334D01*
X110114789Y-93676195D01*
X110144297Y-93725394D01*
X110169568Y-93779252D01*
X110187218Y-93830419D01*
X110193858Y-93871544D01*
X110192298Y-93891259D01*
X110179357Y-93942592D01*
X110156194Y-93999118D01*
X110126302Y-94053035D01*
X110093173Y-94096539D01*
X110082977Y-94106887D01*
X110015892Y-94158662D01*
X109935766Y-94198554D01*
X109849556Y-94222956D01*
X109794592Y-94231068D01*
X109701139Y-94237673D01*
X109611358Y-94235586D01*
X109528869Y-94225340D01*
X109457286Y-94207470D01*
X109400228Y-94182508D01*
X109361311Y-94150988D01*
X109359936Y-94149012D01*
X109352848Y-94123786D01*
X109348609Y-94076535D01*
X109347200Y-94007071D01*
X109348060Y-93944838D01*
X109352780Y-93897456D01*
X109364470Y-93865353D01*
X109386239Y-93845800D01*
X109421198Y-93836070D01*
X109472456Y-93833433D01*
X109543123Y-93835161D01*
X109591743Y-93838173D01*
X109641939Y-93846366D01*
X109674433Y-93860419D01*
X109691892Y-93881654D01*
X109696983Y-93911394D01*
X109696877Y-93915936D01*
X109688175Y-93950730D01*
X109664165Y-93974147D01*
X109622900Y-93987347D01*
X109562431Y-93991489D01*
X109493956Y-93991489D01*
X109493956Y-94029841D01*
X109494006Y-94038976D01*
X109496227Y-94056227D01*
X109505494Y-94066521D01*
X109526875Y-94073459D01*
X109565436Y-94080641D01*
X109570910Y-94081575D01*
X109667860Y-94091478D01*
X109757852Y-94088559D01*
X109838760Y-94073829D01*
X109908459Y-94048299D01*
X109964824Y-94012978D01*
X110005729Y-93968879D01*
X110029051Y-93917012D01*
X110032663Y-93858388D01*
X110027145Y-93829494D01*
X110000461Y-93773604D01*
X109954273Y-93727945D01*
X109889291Y-93693108D01*
X109806229Y-93669690D01*
X109781555Y-93665241D01*
X109692226Y-93654742D01*
X109612419Y-93655971D01*
X109534326Y-93668906D01*
X109499183Y-93675696D01*
X109453745Y-93676713D01*
X109422430Y-93664182D01*
X109402277Y-93637395D01*
X109395893Y-93609148D01*
X109405379Y-93577924D01*
X109414708Y-93564499D01*
X109448943Y-93540967D01*
X109501565Y-93523095D01*
X109570081Y-93511599D01*
X109652000Y-93507192D01*
X109749150Y-93511179D01*
G36*
X109749150Y-93511179D02*
G01*
X109855157Y-93527494D01*
X109948969Y-93555545D01*
X110027765Y-93594452D01*
X110088719Y-93643334D01*
X110114789Y-93676195D01*
X110144297Y-93725394D01*
X110169568Y-93779252D01*
X110187218Y-93830419D01*
X110193858Y-93871544D01*
X110192298Y-93891259D01*
X110179357Y-93942592D01*
X110156194Y-93999118D01*
X110126302Y-94053035D01*
X110093173Y-94096539D01*
X110082977Y-94106887D01*
X110015892Y-94158662D01*
X109935766Y-94198554D01*
X109849556Y-94222956D01*
X109794592Y-94231068D01*
X109701139Y-94237673D01*
X109611358Y-94235586D01*
X109528869Y-94225340D01*
X109457286Y-94207470D01*
X109400228Y-94182508D01*
X109361311Y-94150988D01*
X109359936Y-94149012D01*
X109352848Y-94123786D01*
X109348609Y-94076535D01*
X109347200Y-94007071D01*
X109348060Y-93944838D01*
X109352780Y-93897456D01*
X109364470Y-93865353D01*
X109386239Y-93845800D01*
X109421198Y-93836070D01*
X109472456Y-93833433D01*
X109543123Y-93835161D01*
X109591743Y-93838173D01*
X109641939Y-93846366D01*
X109674433Y-93860419D01*
X109691892Y-93881654D01*
X109696983Y-93911394D01*
X109696877Y-93915936D01*
X109688175Y-93950730D01*
X109664165Y-93974147D01*
X109622900Y-93987347D01*
X109562431Y-93991489D01*
X109493956Y-93991489D01*
X109493956Y-94029841D01*
X109494006Y-94038976D01*
X109496227Y-94056227D01*
X109505494Y-94066521D01*
X109526875Y-94073459D01*
X109565436Y-94080641D01*
X109570910Y-94081575D01*
X109667860Y-94091478D01*
X109757852Y-94088559D01*
X109838760Y-94073829D01*
X109908459Y-94048299D01*
X109964824Y-94012978D01*
X110005729Y-93968879D01*
X110029051Y-93917012D01*
X110032663Y-93858388D01*
X110027145Y-93829494D01*
X110000461Y-93773604D01*
X109954273Y-93727945D01*
X109889291Y-93693108D01*
X109806229Y-93669690D01*
X109781555Y-93665241D01*
X109692226Y-93654742D01*
X109612419Y-93655971D01*
X109534326Y-93668906D01*
X109499183Y-93675696D01*
X109453745Y-93676713D01*
X109422430Y-93664182D01*
X109402277Y-93637395D01*
X109395893Y-93609148D01*
X109405379Y-93577924D01*
X109414708Y-93564499D01*
X109448943Y-93540967D01*
X109501565Y-93523095D01*
X109570081Y-93511599D01*
X109652000Y-93507192D01*
X109749150Y-93511179D01*
G37*
X106805133Y-94117396D02*
X106803163Y-94150175D01*
X106800235Y-94173095D01*
X106796158Y-94188897D01*
X106790743Y-94200319D01*
X106783803Y-94210100D01*
X106760406Y-94239845D01*
X106594714Y-94239251D01*
X106559918Y-94238953D01*
X106461435Y-94235522D01*
X106380473Y-94227839D01*
X106313379Y-94215282D01*
X106256496Y-94197227D01*
X106206169Y-94173052D01*
X106202810Y-94171135D01*
X106144998Y-94134417D01*
X106102644Y-94097451D01*
X106069828Y-94053966D01*
X106040628Y-93997689D01*
X106036346Y-93988073D01*
X106013769Y-93924887D01*
X106008034Y-93879333D01*
X106157279Y-93879333D01*
X106162892Y-93904061D01*
X106168618Y-93919939D01*
X106201548Y-93979847D01*
X106248886Y-94025600D01*
X106312652Y-94058736D01*
X106394861Y-94080790D01*
X106397655Y-94081292D01*
X106443940Y-94087255D01*
X106500336Y-94091483D01*
X106555274Y-94093089D01*
X106649156Y-94093089D01*
X106649156Y-93652822D01*
X106561667Y-93653270D01*
X106494747Y-93655746D01*
X106402349Y-93666998D01*
X106323034Y-93686537D01*
X106261060Y-93713511D01*
X106230120Y-93734240D01*
X106202000Y-93764006D01*
X106178660Y-93806434D01*
X106171533Y-93822400D01*
X106159709Y-93854902D01*
X106157279Y-93879333D01*
X106008034Y-93879333D01*
X106006797Y-93869509D01*
X106015399Y-93814483D01*
X106039541Y-93752351D01*
X106040337Y-93750658D01*
X106080788Y-93681236D01*
X106131473Y-93624638D01*
X106194198Y-93580070D01*
X106270774Y-93546741D01*
X106363009Y-93523861D01*
X106472712Y-93510636D01*
X106601691Y-93506275D01*
X106605263Y-93506270D01*
X106665283Y-93506410D01*
X106707214Y-93507446D01*
X106735328Y-93510040D01*
X106753897Y-93514853D01*
X106767194Y-93522544D01*
X106779491Y-93533776D01*
X106807200Y-93561485D01*
X106807200Y-93870920D01*
X106807175Y-93932526D01*
X106806950Y-94011311D01*
X106806332Y-94072021D01*
X106805775Y-94093089D01*
X106805133Y-94117396D01*
G36*
X106805133Y-94117396D02*
G01*
X106803163Y-94150175D01*
X106800235Y-94173095D01*
X106796158Y-94188897D01*
X106790743Y-94200319D01*
X106783803Y-94210100D01*
X106760406Y-94239845D01*
X106594714Y-94239251D01*
X106559918Y-94238953D01*
X106461435Y-94235522D01*
X106380473Y-94227839D01*
X106313379Y-94215282D01*
X106256496Y-94197227D01*
X106206169Y-94173052D01*
X106202810Y-94171135D01*
X106144998Y-94134417D01*
X106102644Y-94097451D01*
X106069828Y-94053966D01*
X106040628Y-93997689D01*
X106036346Y-93988073D01*
X106013769Y-93924887D01*
X106008034Y-93879333D01*
X106157279Y-93879333D01*
X106162892Y-93904061D01*
X106168618Y-93919939D01*
X106201548Y-93979847D01*
X106248886Y-94025600D01*
X106312652Y-94058736D01*
X106394861Y-94080790D01*
X106397655Y-94081292D01*
X106443940Y-94087255D01*
X106500336Y-94091483D01*
X106555274Y-94093089D01*
X106649156Y-94093089D01*
X106649156Y-93652822D01*
X106561667Y-93653270D01*
X106494747Y-93655746D01*
X106402349Y-93666998D01*
X106323034Y-93686537D01*
X106261060Y-93713511D01*
X106230120Y-93734240D01*
X106202000Y-93764006D01*
X106178660Y-93806434D01*
X106171533Y-93822400D01*
X106159709Y-93854902D01*
X106157279Y-93879333D01*
X106008034Y-93879333D01*
X106006797Y-93869509D01*
X106015399Y-93814483D01*
X106039541Y-93752351D01*
X106040337Y-93750658D01*
X106080788Y-93681236D01*
X106131473Y-93624638D01*
X106194198Y-93580070D01*
X106270774Y-93546741D01*
X106363009Y-93523861D01*
X106472712Y-93510636D01*
X106601691Y-93506275D01*
X106605263Y-93506270D01*
X106665283Y-93506410D01*
X106707214Y-93507446D01*
X106735328Y-93510040D01*
X106753897Y-93514853D01*
X106767194Y-93522544D01*
X106779491Y-93533776D01*
X106807200Y-93561485D01*
X106807200Y-93870920D01*
X106807175Y-93932526D01*
X106806950Y-94011311D01*
X106806332Y-94072021D01*
X106805775Y-94093089D01*
X106805133Y-94117396D01*
G37*
X107608711Y-89199033D02*
X107704268Y-89216523D01*
X107868558Y-89261564D01*
X108022589Y-89324656D01*
X108168509Y-89406915D01*
X108308466Y-89509457D01*
X108444608Y-89633399D01*
X108488473Y-89678661D01*
X108600758Y-89810865D01*
X108693972Y-89948832D01*
X108770719Y-90096750D01*
X108833603Y-90258803D01*
X108837420Y-90270391D01*
X108887507Y-90456392D01*
X108920899Y-90652521D01*
X108937584Y-90854568D01*
X108937551Y-91058325D01*
X108920791Y-91259581D01*
X108887292Y-91454128D01*
X108837044Y-91637756D01*
X108793190Y-91755053D01*
X108715348Y-91917951D01*
X108621828Y-92071866D01*
X108514822Y-92213671D01*
X108396519Y-92340239D01*
X108269111Y-92448441D01*
X108191606Y-92501120D01*
X108064725Y-92570750D01*
X107927243Y-92629468D01*
X107785716Y-92674587D01*
X107646702Y-92703422D01*
X107632597Y-92705106D01*
X107589153Y-92708434D01*
X107531723Y-92711275D01*
X107466122Y-92713373D01*
X107398167Y-92714468D01*
X107271378Y-92712140D01*
X107123673Y-92699136D01*
X106985779Y-92674133D01*
X106852014Y-92636318D01*
X106828562Y-92627889D01*
X106780612Y-92608408D01*
X106724140Y-92583473D01*
X106662379Y-92554722D01*
X106598563Y-92523790D01*
X106535926Y-92492315D01*
X106477703Y-92461934D01*
X106427127Y-92434283D01*
X106387433Y-92410999D01*
X106361854Y-92393718D01*
X106353625Y-92384079D01*
X106355076Y-92380984D01*
X106366250Y-92361079D01*
X106387134Y-92325420D01*
X106416265Y-92276459D01*
X106452181Y-92216646D01*
X106493420Y-92148433D01*
X106538517Y-92074271D01*
X106719785Y-91777008D01*
X106766315Y-91821539D01*
X106857723Y-91899865D01*
X106971334Y-91974439D01*
X107089122Y-92028474D01*
X107209559Y-92061290D01*
X107331117Y-92072211D01*
X107372585Y-92070868D01*
X107490080Y-92052612D01*
X107600089Y-92013617D01*
X107701430Y-91954670D01*
X107792921Y-91876557D01*
X107873380Y-91780064D01*
X107941627Y-91665978D01*
X107957908Y-91631724D01*
X108003982Y-91508240D01*
X108039106Y-91369918D01*
X108063197Y-91220561D01*
X108076173Y-91063973D01*
X108077949Y-90903956D01*
X108068443Y-90744314D01*
X108047572Y-90588850D01*
X108015252Y-90441366D01*
X107971399Y-90305667D01*
X107933982Y-90219076D01*
X107869185Y-90105688D01*
X107793772Y-90012070D01*
X107707418Y-89937959D01*
X107609795Y-89883094D01*
X107500577Y-89847212D01*
X107379439Y-89830051D01*
X107310038Y-89828880D01*
X107187168Y-89843141D01*
X107071664Y-89878241D01*
X106964953Y-89933682D01*
X106868464Y-90008964D01*
X106852720Y-90023440D01*
X106822150Y-90049962D01*
X106799809Y-90067138D01*
X106789691Y-90071787D01*
X106787706Y-90069597D01*
X106773241Y-90050721D01*
X106749400Y-90017397D01*
X106718029Y-89972380D01*
X106680974Y-89918425D01*
X106640083Y-89858285D01*
X106597202Y-89794718D01*
X106554178Y-89730476D01*
X106512857Y-89668315D01*
X106475086Y-89610991D01*
X106442712Y-89561257D01*
X106417582Y-89521868D01*
X106401542Y-89495580D01*
X106396439Y-89485147D01*
X106401050Y-89480941D01*
X106420267Y-89475933D01*
X106429838Y-89473386D01*
X106457809Y-89462249D01*
X106499448Y-89443802D01*
X106550995Y-89419725D01*
X106608690Y-89391699D01*
X106619957Y-89386154D01*
X106797687Y-89306889D01*
X106967490Y-89247385D01*
X107131430Y-89207245D01*
X107291571Y-89186071D01*
X107449977Y-89183466D01*
X107608711Y-89199033D01*
G36*
X107608711Y-89199033D02*
G01*
X107704268Y-89216523D01*
X107868558Y-89261564D01*
X108022589Y-89324656D01*
X108168509Y-89406915D01*
X108308466Y-89509457D01*
X108444608Y-89633399D01*
X108488473Y-89678661D01*
X108600758Y-89810865D01*
X108693972Y-89948832D01*
X108770719Y-90096750D01*
X108833603Y-90258803D01*
X108837420Y-90270391D01*
X108887507Y-90456392D01*
X108920899Y-90652521D01*
X108937584Y-90854568D01*
X108937551Y-91058325D01*
X108920791Y-91259581D01*
X108887292Y-91454128D01*
X108837044Y-91637756D01*
X108793190Y-91755053D01*
X108715348Y-91917951D01*
X108621828Y-92071866D01*
X108514822Y-92213671D01*
X108396519Y-92340239D01*
X108269111Y-92448441D01*
X108191606Y-92501120D01*
X108064725Y-92570750D01*
X107927243Y-92629468D01*
X107785716Y-92674587D01*
X107646702Y-92703422D01*
X107632597Y-92705106D01*
X107589153Y-92708434D01*
X107531723Y-92711275D01*
X107466122Y-92713373D01*
X107398167Y-92714468D01*
X107271378Y-92712140D01*
X107123673Y-92699136D01*
X106985779Y-92674133D01*
X106852014Y-92636318D01*
X106828562Y-92627889D01*
X106780612Y-92608408D01*
X106724140Y-92583473D01*
X106662379Y-92554722D01*
X106598563Y-92523790D01*
X106535926Y-92492315D01*
X106477703Y-92461934D01*
X106427127Y-92434283D01*
X106387433Y-92410999D01*
X106361854Y-92393718D01*
X106353625Y-92384079D01*
X106355076Y-92380984D01*
X106366250Y-92361079D01*
X106387134Y-92325420D01*
X106416265Y-92276459D01*
X106452181Y-92216646D01*
X106493420Y-92148433D01*
X106538517Y-92074271D01*
X106719785Y-91777008D01*
X106766315Y-91821539D01*
X106857723Y-91899865D01*
X106971334Y-91974439D01*
X107089122Y-92028474D01*
X107209559Y-92061290D01*
X107331117Y-92072211D01*
X107372585Y-92070868D01*
X107490080Y-92052612D01*
X107600089Y-92013617D01*
X107701430Y-91954670D01*
X107792921Y-91876557D01*
X107873380Y-91780064D01*
X107941627Y-91665978D01*
X107957908Y-91631724D01*
X108003982Y-91508240D01*
X108039106Y-91369918D01*
X108063197Y-91220561D01*
X108076173Y-91063973D01*
X108077949Y-90903956D01*
X108068443Y-90744314D01*
X108047572Y-90588850D01*
X108015252Y-90441366D01*
X107971399Y-90305667D01*
X107933982Y-90219076D01*
X107869185Y-90105688D01*
X107793772Y-90012070D01*
X107707418Y-89937959D01*
X107609795Y-89883094D01*
X107500577Y-89847212D01*
X107379439Y-89830051D01*
X107310038Y-89828880D01*
X107187168Y-89843141D01*
X107071664Y-89878241D01*
X106964953Y-89933682D01*
X106868464Y-90008964D01*
X106852720Y-90023440D01*
X106822150Y-90049962D01*
X106799809Y-90067138D01*
X106789691Y-90071787D01*
X106787706Y-90069597D01*
X106773241Y-90050721D01*
X106749400Y-90017397D01*
X106718029Y-89972380D01*
X106680974Y-89918425D01*
X106640083Y-89858285D01*
X106597202Y-89794718D01*
X106554178Y-89730476D01*
X106512857Y-89668315D01*
X106475086Y-89610991D01*
X106442712Y-89561257D01*
X106417582Y-89521868D01*
X106401542Y-89495580D01*
X106396439Y-89485147D01*
X106401050Y-89480941D01*
X106420267Y-89475933D01*
X106429838Y-89473386D01*
X106457809Y-89462249D01*
X106499448Y-89443802D01*
X106550995Y-89419725D01*
X106608690Y-89391699D01*
X106619957Y-89386154D01*
X106797687Y-89306889D01*
X106967490Y-89247385D01*
X107131430Y-89207245D01*
X107291571Y-89186071D01*
X107449977Y-89183466D01*
X107608711Y-89199033D01*
G37*
X110606137Y-93510463D02*
X110640291Y-93533776D01*
X110668000Y-93561485D01*
X110668000Y-93874537D01*
X110667959Y-93958567D01*
X110667701Y-94032789D01*
X110667030Y-94089541D01*
X110665752Y-94131512D01*
X110663673Y-94161389D01*
X110660599Y-94181861D01*
X110656334Y-94195614D01*
X110650684Y-94205337D01*
X110643455Y-94213717D01*
X110611991Y-94235181D01*
X110576826Y-94236947D01*
X110543822Y-94217267D01*
X110538516Y-94211398D01*
X110533066Y-94202314D01*
X110528900Y-94188973D01*
X110525846Y-94168757D01*
X110523732Y-94139049D01*
X110522386Y-94097232D01*
X110521638Y-94040689D01*
X110521314Y-93966802D01*
X110521245Y-93872956D01*
X110521284Y-93797294D01*
X110521539Y-93719385D01*
X110522183Y-93659375D01*
X110523387Y-93614648D01*
X110525324Y-93582585D01*
X110528164Y-93560571D01*
X110532079Y-93545987D01*
X110537242Y-93536218D01*
X110543822Y-93528645D01*
X110573006Y-93509623D01*
X110606137Y-93510463D01*
G36*
X110606137Y-93510463D02*
G01*
X110640291Y-93533776D01*
X110668000Y-93561485D01*
X110668000Y-93874537D01*
X110667959Y-93958567D01*
X110667701Y-94032789D01*
X110667030Y-94089541D01*
X110665752Y-94131512D01*
X110663673Y-94161389D01*
X110660599Y-94181861D01*
X110656334Y-94195614D01*
X110650684Y-94205337D01*
X110643455Y-94213717D01*
X110611991Y-94235181D01*
X110576826Y-94236947D01*
X110543822Y-94217267D01*
X110538516Y-94211398D01*
X110533066Y-94202314D01*
X110528900Y-94188973D01*
X110525846Y-94168757D01*
X110523732Y-94139049D01*
X110522386Y-94097232D01*
X110521638Y-94040689D01*
X110521314Y-93966802D01*
X110521245Y-93872956D01*
X110521284Y-93797294D01*
X110521539Y-93719385D01*
X110522183Y-93659375D01*
X110523387Y-93614648D01*
X110525324Y-93582585D01*
X110528164Y-93560571D01*
X110532079Y-93545987D01*
X110537242Y-93536218D01*
X110543822Y-93528645D01*
X110573006Y-93509623D01*
X110606137Y-93510463D01*
G37*
X106347755Y-91880467D02*
X106347261Y-91914363D01*
X106343632Y-91989202D01*
X106336022Y-92051401D01*
X106323688Y-92107984D01*
X106279313Y-92234076D01*
X106216400Y-92348679D01*
X106136238Y-92449568D01*
X106039740Y-92535924D01*
X105927822Y-92606932D01*
X105801397Y-92661776D01*
X105661378Y-92699638D01*
X105625149Y-92705351D01*
X105546155Y-92711313D01*
X105457841Y-92711646D01*
X105368075Y-92706659D01*
X105284722Y-92696666D01*
X105215651Y-92681978D01*
X105129187Y-92651749D01*
X105019286Y-92597057D01*
X104921956Y-92529543D01*
X104859867Y-92478556D01*
X104856605Y-92574622D01*
X104853343Y-92670689D01*
X104430450Y-92670689D01*
X104419543Y-92670686D01*
X104325056Y-92670380D01*
X104238331Y-92669616D01*
X104161837Y-92668451D01*
X104098043Y-92666942D01*
X104049418Y-92665147D01*
X104018433Y-92663121D01*
X104007556Y-92660922D01*
X104007578Y-92660463D01*
X104014614Y-92644910D01*
X104030434Y-92622071D01*
X104034734Y-92616638D01*
X104045777Y-92602606D01*
X104055311Y-92589186D01*
X104063461Y-92574722D01*
X104070352Y-92557556D01*
X104076111Y-92536034D01*
X104080862Y-92508498D01*
X104084731Y-92473292D01*
X104087844Y-92428760D01*
X104090325Y-92373246D01*
X104092300Y-92305093D01*
X104093894Y-92222645D01*
X104095234Y-92124246D01*
X104096444Y-92008239D01*
X104096896Y-91957462D01*
X104899378Y-91957462D01*
X104944048Y-92013973D01*
X104956785Y-92029212D01*
X105003604Y-92071844D01*
X105064255Y-92107672D01*
X105074897Y-92112850D01*
X105113676Y-92129745D01*
X105148692Y-92139909D01*
X105188722Y-92145325D01*
X105242541Y-92147978D01*
X105260648Y-92148383D01*
X105336011Y-92145540D01*
X105396743Y-92133620D01*
X105448452Y-92111037D01*
X105496746Y-92076211D01*
X105501803Y-92071798D01*
X105550272Y-92016160D01*
X105578459Y-91952333D01*
X105587752Y-91877282D01*
X105580520Y-91805693D01*
X105555796Y-91742645D01*
X105511249Y-91684758D01*
X105456319Y-91637808D01*
X105383894Y-91597961D01*
X105297340Y-91570263D01*
X105194670Y-91554096D01*
X105073894Y-91548842D01*
X105065007Y-91548857D01*
X105009660Y-91549655D01*
X104962736Y-91551488D01*
X104928953Y-91554111D01*
X104913028Y-91557274D01*
X104908943Y-91563741D01*
X104904572Y-91585875D01*
X104901604Y-91624988D01*
X104899914Y-91682939D01*
X104899378Y-91761586D01*
X104899378Y-91957462D01*
X104096896Y-91957462D01*
X104097649Y-91872968D01*
X104098975Y-91716778D01*
X104100228Y-91574012D01*
X104101651Y-91428942D01*
X104103176Y-91303027D01*
X104104933Y-91194436D01*
X104107051Y-91101334D01*
X104109660Y-91021891D01*
X104112890Y-90954273D01*
X104116869Y-90896649D01*
X104121728Y-90847185D01*
X104127597Y-90804050D01*
X104134604Y-90765410D01*
X104142880Y-90729434D01*
X104152554Y-90694289D01*
X104163756Y-90658142D01*
X104176616Y-90619161D01*
X104192090Y-90576091D01*
X104234994Y-90483871D01*
X104288735Y-90404099D01*
X104357576Y-90329965D01*
X104435185Y-90266405D01*
X104539761Y-90204725D01*
X104659244Y-90157202D01*
X104794508Y-90123567D01*
X104946426Y-90103552D01*
X105115872Y-90096889D01*
X105173890Y-90097287D01*
X105239398Y-90099335D01*
X105300693Y-90103704D01*
X105362097Y-90111035D01*
X105427932Y-90121969D01*
X105502520Y-90137147D01*
X105590184Y-90157209D01*
X105695245Y-90182797D01*
X105723806Y-90189820D01*
X105799054Y-90207776D01*
X105869388Y-90223820D01*
X105930567Y-90237028D01*
X105978354Y-90246474D01*
X106008511Y-90251231D01*
X106036783Y-90254910D01*
X106063060Y-90260187D01*
X106073059Y-90264942D01*
X106069952Y-90273781D01*
X106059194Y-90301072D01*
X106041864Y-90343906D01*
X106019126Y-90399425D01*
X105992147Y-90464772D01*
X105962090Y-90537089D01*
X105955493Y-90552879D01*
X105916907Y-90643484D01*
X105885768Y-90713217D01*
X105861917Y-90762405D01*
X105845198Y-90791374D01*
X105835454Y-90800452D01*
X105827766Y-90798405D01*
X105801415Y-90788760D01*
X105762982Y-90773190D01*
X105717822Y-90753815D01*
X105623293Y-90715814D01*
X105486480Y-90674780D01*
X105345289Y-90649612D01*
X105307314Y-90645611D01*
X105204059Y-90643447D01*
X105116952Y-90656622D01*
X105045129Y-90685756D01*
X104987731Y-90731466D01*
X104943896Y-90794372D01*
X104912762Y-90875092D01*
X104893470Y-90974245D01*
X104886050Y-91033224D01*
X105047936Y-91026445D01*
X105174495Y-91024813D01*
X105325951Y-91031194D01*
X105474396Y-91045777D01*
X105610578Y-91067882D01*
X105675245Y-91082821D01*
X105807490Y-91125741D01*
X105929762Y-91182340D01*
X106039685Y-91251017D01*
X106134883Y-91330170D01*
X106212980Y-91418196D01*
X106271599Y-91513493D01*
X106295595Y-91565864D01*
X106321232Y-91636590D01*
X106337478Y-91707812D01*
X106345822Y-91786712D01*
X106347690Y-91877282D01*
X106347755Y-91880467D01*
G36*
X106347755Y-91880467D02*
G01*
X106347261Y-91914363D01*
X106343632Y-91989202D01*
X106336022Y-92051401D01*
X106323688Y-92107984D01*
X106279313Y-92234076D01*
X106216400Y-92348679D01*
X106136238Y-92449568D01*
X106039740Y-92535924D01*
X105927822Y-92606932D01*
X105801397Y-92661776D01*
X105661378Y-92699638D01*
X105625149Y-92705351D01*
X105546155Y-92711313D01*
X105457841Y-92711646D01*
X105368075Y-92706659D01*
X105284722Y-92696666D01*
X105215651Y-92681978D01*
X105129187Y-92651749D01*
X105019286Y-92597057D01*
X104921956Y-92529543D01*
X104859867Y-92478556D01*
X104856605Y-92574622D01*
X104853343Y-92670689D01*
X104430450Y-92670689D01*
X104419543Y-92670686D01*
X104325056Y-92670380D01*
X104238331Y-92669616D01*
X104161837Y-92668451D01*
X104098043Y-92666942D01*
X104049418Y-92665147D01*
X104018433Y-92663121D01*
X104007556Y-92660922D01*
X104007578Y-92660463D01*
X104014614Y-92644910D01*
X104030434Y-92622071D01*
X104034734Y-92616638D01*
X104045777Y-92602606D01*
X104055311Y-92589186D01*
X104063461Y-92574722D01*
X104070352Y-92557556D01*
X104076111Y-92536034D01*
X104080862Y-92508498D01*
X104084731Y-92473292D01*
X104087844Y-92428760D01*
X104090325Y-92373246D01*
X104092300Y-92305093D01*
X104093894Y-92222645D01*
X104095234Y-92124246D01*
X104096444Y-92008239D01*
X104096896Y-91957462D01*
X104899378Y-91957462D01*
X104944048Y-92013973D01*
X104956785Y-92029212D01*
X105003604Y-92071844D01*
X105064255Y-92107672D01*
X105074897Y-92112850D01*
X105113676Y-92129745D01*
X105148692Y-92139909D01*
X105188722Y-92145325D01*
X105242541Y-92147978D01*
X105260648Y-92148383D01*
X105336011Y-92145540D01*
X105396743Y-92133620D01*
X105448452Y-92111037D01*
X105496746Y-92076211D01*
X105501803Y-92071798D01*
X105550272Y-92016160D01*
X105578459Y-91952333D01*
X105587752Y-91877282D01*
X105580520Y-91805693D01*
X105555796Y-91742645D01*
X105511249Y-91684758D01*
X105456319Y-91637808D01*
X105383894Y-91597961D01*
X105297340Y-91570263D01*
X105194670Y-91554096D01*
X105073894Y-91548842D01*
X105065007Y-91548857D01*
X105009660Y-91549655D01*
X104962736Y-91551488D01*
X104928953Y-91554111D01*
X104913028Y-91557274D01*
X104908943Y-91563741D01*
X104904572Y-91585875D01*
X104901604Y-91624988D01*
X104899914Y-91682939D01*
X104899378Y-91761586D01*
X104899378Y-91957462D01*
X104096896Y-91957462D01*
X104097649Y-91872968D01*
X104098975Y-91716778D01*
X104100228Y-91574012D01*
X104101651Y-91428942D01*
X104103176Y-91303027D01*
X104104933Y-91194436D01*
X104107051Y-91101334D01*
X104109660Y-91021891D01*
X104112890Y-90954273D01*
X104116869Y-90896649D01*
X104121728Y-90847185D01*
X104127597Y-90804050D01*
X104134604Y-90765410D01*
X104142880Y-90729434D01*
X104152554Y-90694289D01*
X104163756Y-90658142D01*
X104176616Y-90619161D01*
X104192090Y-90576091D01*
X104234994Y-90483871D01*
X104288735Y-90404099D01*
X104357576Y-90329965D01*
X104435185Y-90266405D01*
X104539761Y-90204725D01*
X104659244Y-90157202D01*
X104794508Y-90123567D01*
X104946426Y-90103552D01*
X105115872Y-90096889D01*
X105173890Y-90097287D01*
X105239398Y-90099335D01*
X105300693Y-90103704D01*
X105362097Y-90111035D01*
X105427932Y-90121969D01*
X105502520Y-90137147D01*
X105590184Y-90157209D01*
X105695245Y-90182797D01*
X105723806Y-90189820D01*
X105799054Y-90207776D01*
X105869388Y-90223820D01*
X105930567Y-90237028D01*
X105978354Y-90246474D01*
X106008511Y-90251231D01*
X106036783Y-90254910D01*
X106063060Y-90260187D01*
X106073059Y-90264942D01*
X106069952Y-90273781D01*
X106059194Y-90301072D01*
X106041864Y-90343906D01*
X106019126Y-90399425D01*
X105992147Y-90464772D01*
X105962090Y-90537089D01*
X105955493Y-90552879D01*
X105916907Y-90643484D01*
X105885768Y-90713217D01*
X105861917Y-90762405D01*
X105845198Y-90791374D01*
X105835454Y-90800452D01*
X105827766Y-90798405D01*
X105801415Y-90788760D01*
X105762982Y-90773190D01*
X105717822Y-90753815D01*
X105623293Y-90715814D01*
X105486480Y-90674780D01*
X105345289Y-90649612D01*
X105307314Y-90645611D01*
X105204059Y-90643447D01*
X105116952Y-90656622D01*
X105045129Y-90685756D01*
X104987731Y-90731466D01*
X104943896Y-90794372D01*
X104912762Y-90875092D01*
X104893470Y-90974245D01*
X104886050Y-91033224D01*
X105047936Y-91026445D01*
X105174495Y-91024813D01*
X105325951Y-91031194D01*
X105474396Y-91045777D01*
X105610578Y-91067882D01*
X105675245Y-91082821D01*
X105807490Y-91125741D01*
X105929762Y-91182340D01*
X106039685Y-91251017D01*
X106134883Y-91330170D01*
X106212980Y-91418196D01*
X106271599Y-91513493D01*
X106295595Y-91565864D01*
X106321232Y-91636590D01*
X106337478Y-91707812D01*
X106345822Y-91786712D01*
X106347690Y-91877282D01*
X106347755Y-91880467D01*
G37*
X111460853Y-93506936D02*
X111527100Y-93512366D01*
X111582400Y-93521964D01*
X111633283Y-93536825D01*
X111704595Y-93569958D01*
X111755752Y-93612640D01*
X111786575Y-93664705D01*
X111796889Y-93725983D01*
X111795952Y-93757232D01*
X111790160Y-93782029D01*
X111775353Y-93803699D01*
X111747380Y-93831049D01*
X111739402Y-93838378D01*
X111715692Y-93859281D01*
X111693298Y-93876251D01*
X111669265Y-93890205D01*
X111640637Y-93902056D01*
X111604460Y-93912720D01*
X111557780Y-93923111D01*
X111497641Y-93934146D01*
X111421090Y-93946738D01*
X111325171Y-93961804D01*
X111306808Y-93964838D01*
X111244478Y-93978458D01*
X111199260Y-93994192D01*
X111172976Y-94011263D01*
X111167447Y-94028897D01*
X111170068Y-94033168D01*
X111188000Y-94048233D01*
X111216126Y-94064867D01*
X111228926Y-94070857D01*
X111250224Y-94078050D01*
X111276610Y-94082827D01*
X111312454Y-94085646D01*
X111362128Y-94086964D01*
X111430000Y-94087237D01*
X111447785Y-94087164D01*
X111515406Y-94086053D01*
X111580345Y-94083828D01*
X111635970Y-94080762D01*
X111675651Y-94077127D01*
X111711162Y-94073059D01*
X111740415Y-94072276D01*
X111759315Y-94076876D01*
X111774429Y-94087551D01*
X111778085Y-94091144D01*
X111794427Y-94122918D01*
X111793107Y-94158572D01*
X111774150Y-94189190D01*
X111753780Y-94200796D01*
X111717796Y-94213491D01*
X111675372Y-94223541D01*
X111671922Y-94224140D01*
X111629252Y-94229356D01*
X111571866Y-94233730D01*
X111506849Y-94236818D01*
X111441289Y-94238177D01*
X111425057Y-94238218D01*
X111326744Y-94235741D01*
X111246692Y-94227735D01*
X111181513Y-94213203D01*
X111127817Y-94191149D01*
X111082216Y-94160576D01*
X111041323Y-94120486D01*
X111021202Y-94094259D01*
X111009576Y-94064712D01*
X111006667Y-94024995D01*
X111006808Y-94013026D01*
X111010681Y-93980345D01*
X111023065Y-93953819D01*
X111048230Y-93922971D01*
X111069442Y-93900831D01*
X111095838Y-93878285D01*
X111125555Y-93859917D01*
X111161785Y-93844661D01*
X111207717Y-93831449D01*
X111266544Y-93819214D01*
X111341456Y-93806889D01*
X111435645Y-93793406D01*
X111480957Y-93786396D01*
X111548911Y-93771837D01*
X111598047Y-93755337D01*
X111627614Y-93737439D01*
X111636864Y-93718685D01*
X111625048Y-93699615D01*
X111591416Y-93680771D01*
X111588370Y-93679557D01*
X111542011Y-93667479D01*
X111479361Y-93659279D01*
X111405927Y-93655119D01*
X111327217Y-93655161D01*
X111248739Y-93659569D01*
X111176000Y-93668505D01*
X111172073Y-93669154D01*
X111123257Y-93676861D01*
X111091005Y-93680473D01*
X111070008Y-93679876D01*
X111054954Y-93674954D01*
X111040534Y-93665596D01*
X111039364Y-93664725D01*
X111014847Y-93634351D01*
X111010054Y-93598850D01*
X111025860Y-93564269D01*
X111030406Y-93559813D01*
X111060020Y-93544673D01*
X111107002Y-93531550D01*
X111167306Y-93520750D01*
X111236888Y-93512581D01*
X111311703Y-93507351D01*
X111387706Y-93505367D01*
X111460853Y-93506936D01*
G36*
X111460853Y-93506936D02*
G01*
X111527100Y-93512366D01*
X111582400Y-93521964D01*
X111633283Y-93536825D01*
X111704595Y-93569958D01*
X111755752Y-93612640D01*
X111786575Y-93664705D01*
X111796889Y-93725983D01*
X111795952Y-93757232D01*
X111790160Y-93782029D01*
X111775353Y-93803699D01*
X111747380Y-93831049D01*
X111739402Y-93838378D01*
X111715692Y-93859281D01*
X111693298Y-93876251D01*
X111669265Y-93890205D01*
X111640637Y-93902056D01*
X111604460Y-93912720D01*
X111557780Y-93923111D01*
X111497641Y-93934146D01*
X111421090Y-93946738D01*
X111325171Y-93961804D01*
X111306808Y-93964838D01*
X111244478Y-93978458D01*
X111199260Y-93994192D01*
X111172976Y-94011263D01*
X111167447Y-94028897D01*
X111170068Y-94033168D01*
X111188000Y-94048233D01*
X111216126Y-94064867D01*
X111228926Y-94070857D01*
X111250224Y-94078050D01*
X111276610Y-94082827D01*
X111312454Y-94085646D01*
X111362128Y-94086964D01*
X111430000Y-94087237D01*
X111447785Y-94087164D01*
X111515406Y-94086053D01*
X111580345Y-94083828D01*
X111635970Y-94080762D01*
X111675651Y-94077127D01*
X111711162Y-94073059D01*
X111740415Y-94072276D01*
X111759315Y-94076876D01*
X111774429Y-94087551D01*
X111778085Y-94091144D01*
X111794427Y-94122918D01*
X111793107Y-94158572D01*
X111774150Y-94189190D01*
X111753780Y-94200796D01*
X111717796Y-94213491D01*
X111675372Y-94223541D01*
X111671922Y-94224140D01*
X111629252Y-94229356D01*
X111571866Y-94233730D01*
X111506849Y-94236818D01*
X111441289Y-94238177D01*
X111425057Y-94238218D01*
X111326744Y-94235741D01*
X111246692Y-94227735D01*
X111181513Y-94213203D01*
X111127817Y-94191149D01*
X111082216Y-94160576D01*
X111041323Y-94120486D01*
X111021202Y-94094259D01*
X111009576Y-94064712D01*
X111006667Y-94024995D01*
X111006808Y-94013026D01*
X111010681Y-93980345D01*
X111023065Y-93953819D01*
X111048230Y-93922971D01*
X111069442Y-93900831D01*
X111095838Y-93878285D01*
X111125555Y-93859917D01*
X111161785Y-93844661D01*
X111207717Y-93831449D01*
X111266544Y-93819214D01*
X111341456Y-93806889D01*
X111435645Y-93793406D01*
X111480957Y-93786396D01*
X111548911Y-93771837D01*
X111598047Y-93755337D01*
X111627614Y-93737439D01*
X111636864Y-93718685D01*
X111625048Y-93699615D01*
X111591416Y-93680771D01*
X111588370Y-93679557D01*
X111542011Y-93667479D01*
X111479361Y-93659279D01*
X111405927Y-93655119D01*
X111327217Y-93655161D01*
X111248739Y-93659569D01*
X111176000Y-93668505D01*
X111172073Y-93669154D01*
X111123257Y-93676861D01*
X111091005Y-93680473D01*
X111070008Y-93679876D01*
X111054954Y-93674954D01*
X111040534Y-93665596D01*
X111039364Y-93664725D01*
X111014847Y-93634351D01*
X111010054Y-93598850D01*
X111025860Y-93564269D01*
X111030406Y-93559813D01*
X111060020Y-93544673D01*
X111107002Y-93531550D01*
X111167306Y-93520750D01*
X111236888Y-93512581D01*
X111311703Y-93507351D01*
X111387706Y-93505367D01*
X111460853Y-93506936D01*
G37*
%TD*%
M02*
