%TF.GenerationSoftware,KiCad,Pcbnew,7.0.10*%
%TF.CreationDate,2024-09-09T18:41:49-04:00*%
%TF.ProjectId,Shield,53686965-6c64-42e6-9b69-6361645f7063,rev?*%
%TF.SameCoordinates,Original*%
%TF.FileFunction,Plated,1,2,PTH,Drill*%
%TF.FilePolarity,Positive*%
%FSLAX46Y46*%
G04 Gerber Fmt 4.6, Leading zero omitted, Abs format (unit mm)*
G04 Created by KiCad (PCBNEW 7.0.10) date 2024-09-09 18:41:49*
%MOMM*%
%LPD*%
G01*
G04 APERTURE LIST*
%TA.AperFunction,ComponentDrill*%
%ADD10C,0.800000*%
%TD*%
%TA.AperFunction,ComponentDrill*%
%ADD11C,0.900000*%
%TD*%
%TA.AperFunction,ComponentDrill*%
%ADD12C,1.000000*%
%TD*%
%TA.AperFunction,ComponentDrill*%
%ADD13C,1.300000*%
%TD*%
G04 APERTURE END LIST*
D10*
%TO.C,R2*%
X101983000Y-60757000D03*
X105383000Y-60757000D03*
%TO.C,R3*%
X110033000Y-79299000D03*
%TO.C,SW1*%
X116848500Y-58217000D03*
X124468500Y-58217000D03*
%TO.C,R3*%
X125273000Y-79299000D03*
%TO.C,R1*%
X135433000Y-57963000D03*
X150673000Y-57963000D03*
D11*
%TO.C,D1*%
X158547000Y-58603000D03*
X158547000Y-61143000D03*
D12*
%TO.C,J3*%
X118796000Y-49327000D03*
X121336000Y-49327000D03*
X123876000Y-49327000D03*
X126416000Y-49327000D03*
%TO.C,J1*%
X127955000Y-97562000D03*
%TO.C,J3*%
X128956000Y-49327000D03*
%TO.C,J1*%
X130495000Y-97562000D03*
%TO.C,J3*%
X131496000Y-49327000D03*
%TO.C,J1*%
X133035000Y-97562000D03*
%TO.C,J3*%
X134036000Y-49327000D03*
%TO.C,J1*%
X135575000Y-97562000D03*
%TO.C,J3*%
X136576000Y-49327000D03*
%TO.C,J1*%
X138115000Y-97562000D03*
%TO.C,J3*%
X139116000Y-49327000D03*
%TO.C,J1*%
X140655000Y-97562000D03*
%TO.C,J3*%
X141656000Y-49327000D03*
%TO.C,J1*%
X143195000Y-97562000D03*
%TO.C,J4*%
X145720000Y-49327000D03*
%TO.C,J1*%
X145735000Y-97562000D03*
%TO.C,J4*%
X148260000Y-49327000D03*
X150800000Y-49327000D03*
%TO.C,J2*%
X150800000Y-97587000D03*
%TO.C,J4*%
X153340000Y-49327000D03*
%TO.C,J2*%
X153340000Y-97587000D03*
%TO.C,J4*%
X155880000Y-49327000D03*
%TO.C,J2*%
X155880000Y-97587000D03*
%TO.C,J5*%
X156515000Y-74727000D03*
X156515000Y-77267000D03*
X156515000Y-79807000D03*
%TO.C,J4*%
X158420000Y-49327000D03*
%TO.C,J2*%
X158420000Y-97587000D03*
%TO.C,J4*%
X160960000Y-49327000D03*
%TO.C,J2*%
X160960000Y-97587000D03*
%TO.C,J4*%
X163500000Y-49327000D03*
%TO.C,J2*%
X163500000Y-97587000D03*
D13*
%TO.C,RV1*%
X132933000Y-68918000D03*
X135433000Y-78918000D03*
X137933000Y-68918000D03*
M02*
